<?xml version="1.0" encoding="utf-8"?>
<!-- Generator: Adobe Illustrator 16.0.0, SVG Export Plug-In . SVG Version: 6.00 Build 0)  -->
<!DOCTYPE svg PUBLIC "-//W3C//DTD SVG 1.1//EN" "http://www.w3.org/Graphics/SVG/1.1/DTD/svg11.dtd">
<svg version="1.1" id="Capa_1" xmlns="http://www.w3.org/2000/svg" xmlns:xlink="http://www.w3.org/1999/xlink" x="0px" y="0px"
	 width="1280px" height="800px" viewBox="0 0 1280 800" enable-background="new 0 0 1280 800" xml:space="preserve">
<path fill="#363A2A" d="M585.649,676.295c-5.243-24.495-6.294-49.17-3.032-74.005c4.155-31.629,12.932-61.909,27.855-90.151
	c8.771-16.598,10.519-33.851,7.064-51.854c-2.366-12.334-13.244-18.883-27.095-16.737c-3.439,0.532-6.827,1.513-10.175,2.501
	c-10.976,3.236-17.174,13.812-15.528,26.321c1.335,10.155,8.667,15.773,20.765,15.912c0.991,0.011,1.982,0.001,3.131,0.001
	c-8.166,8.512-15.807,5.306-26.998-11.374c-3.042,5.197-2.05,9.938,0.302,14.777c6.54,13.457,10.017,27.506,7.729,42.566
	c-0.675,4.445-1.704,8.823-3.562,12.945c-0.567,1.259-0.714,3.606-2.613,2.98c-1.89-0.622-0.476-2.318-0.165-3.691
	c3.446-15.23,3.792-30.366-1.938-45.2c-1.008-2.608-2.061-5.263-4.596-7.841c-1.132,3.565-2.089,6.776-3.169,9.944
	c-2.886,8.461-6.669,16.413-13.939,22.062c-8.697,6.756-18.311,3.623-21.609-6.854c-0.365-1.156-0.948-2.485,0.12-3.159
	c1.275-0.803,1.872,0.554,2.609,1.515c6.247,8.129,11.572,8.466,19.058,1.281c5.594-5.37,8.666-12.232,10.756-19.459
	c4.326-14.965,5.017-30.761,10.333-45.683c-7.895,4.857-12.828,12.627-19.609,18.452c4.449-11.313,12.622-19.403,22.873-26.435
	c-7.146-3.794-13.704-7.489-17.262-14.769c7.418,5.83,14.783,11.658,25.597,10.801c-1.645-3.331-3.142-6.363-4.743-9.606
	c3.382-0.619,3.819,2.676,5.021,4.299c2.375,3.211,4.729,4.316,8.834,3.34c4.65-1.104,9.558-1.216,14.369-1.521
	c2.336-0.148,3.467-0.678,2.541-3.229c-4.163-11.466-8.804-22.669-17.061-31.948c-2.761-3.104-6.107-5.467-10.135-7.567
	c5.794-1.213,6.568-0.738,15.979,9.65c0.577-18.128,4.426-35.59-0.859-52.912c-4.134-13.549-18.671-18.523-28.892-10.189
	c-8.724,7.113-8.559,15.065,0.434,21.008c-5.125,1.215-9.601-2.471-9.493-7.815c0.224-11.059,6.898-18.82,17.875-20.787
	c10.276-1.843,18.935,3.44,22.996,14.028c2.938,7.654,3.945,15.685,4.427,24.353c8.477-10.716,10.813-22.332,8.25-34.951
	c-1.676-8.252-4.805-9.5-11.676-5.242c1.59-4.521,4.396-5.902,8.859-3.059c4.427,2.819,5.366,0.775,6.506-2.892
	c1.042-3.348,2.803-6.433,5.159-9.066c3.689-4.126,6.88-4.661,12.661-1.896c-15.397,2.381-16.742,14.082-18.073,25.695
	c-0.619,5.405-0.741,10.846,0.325,17.061c1.97-2.166,3.436-3.848,4.974-5.459c11.681-12.237,25.754-16.489,42.303-12.85
	c10.504,2.312,14.486,10.381,17.25,19.375c1.114,3.627,1.398,7.549,0.794,11.398c-0.166,1.057,0.263,2.803-1.216,2.911
	c-2.156,0.158-1.205-1.856-1.498-2.972c-0.16-0.605-0.198-1.245-0.326-2.101c-2.155,0.379-2.493,2.238-3.309,3.465
	c-2.961,4.461-6.14,8.715-10.323,12.117c-4.999,4.066-13.056,4.785-18.74,1.707c-4.558-2.472-5.385-7.096-2.472-13.831
	c0.695,8.693,2.854,11.779,8.646,12.368c8.171,0.827,16.729-5.357,18.626-13.578c0.521-2.266,0.807-4.601,1.011-6.919
	c1.431-16.205-10.243-25.515-25.842-20.407c-19.966,6.535-33.722,19.528-40.393,39.684c-3.207,9.689-1.778,19.055,1.775,28.305
	c0.836,2.177,1.967,3.375,4.221,1.138c-0.082,14.385,5.938,22.757,19.217,27.104c21.507,7.041,45.146-1.945,56.473-22.487
	c10.104-18.326,13.521-38.218,9.61-58.929c-2.328-12.336-8.67-22.586-18.448-30.617c-1.828-1.502-3.767-2.695-6.01-3.454
	c-14.751-4.988-26.997-13.789-36.913-25.574c-4.306-5.117-8.939-5.685-14.63-4.146c-5.276,1.426-9.5,4.646-13.814,7.912
	c1.495-4.475,4.684-7.29,8.954-9.135c2.321-1.004,4.72-1.547,7.233-1.779c7.442-0.686,7.366-0.672,3.64-7.096
	c-2.694-4.643-6.695-7.507-11.823-9.113c0.404-0.365,0.603-0.702,0.803-0.703c6.793-0.026,6.701-0.006,5.554-7.013
	c-2.595-15.84-1.784-31.54,2.284-47.063c0.805-3.068,1.48-6.138,1.511-9.326c0.065-7.027-2.479-11.819-7.773-13.798
	c-6.381-2.385-12.429-2.033-17.547,3.105c-3.62,3.635-5.714,8.145-7.36,12.907c-0.463,1.339-0.9,2.687-1.555,4.639
	c-1.828-9.701,4.564-21.687,12.907-25.215c10.399-4.399,18.203-1.415,26.065,10.215c4.432-6.843,10.047-12.441,16.369-17.297
	c13.88-10.662,32.509-9.366,43.978,2.955c5.288,5.683,7.378,12.189,4.82,19.765c-1.436,4.255-4.869,6.314-8.992,6.953
	c-3.344,0.518-5.608-1.481-7.075-4.443c0.366-0.18,0.69-0.485,0.898-0.42c2.841,0.891,5.528,3.878,8.675,0.89
	c3.621-3.44,4.674-8.962,2.243-13.355c-5.163-9.331-13.026-14.415-23.905-14.458c-16.335-0.063-41.442,21.165-39.173,42.678
	c0.063,0.601-0.211,1.35,0.936,1.856c3.531-4.625,6.944-9.515,11.77-13.093c4.616-3.422,9.506-5.434,15.384-3.614
	c5.146,1.592,7.609,5.287,7.449,11.537c-0.164,6.359-2.703,9.963-7.938,11.269c-0.046,0.04-0.091,0.08-0.136,0.119
	c0.133-0.033,0.363-0.038,0.383-0.104c0.781-2.729,3.578-4.296,4.033-7.268c0.531-3.453,0.49-6.791-2.219-9.286
	c-2.771-2.553-5.935-1.511-8.863-0.107c-9.303,4.462-15.456,11.545-19.111,21.327c-10.144,27.13,1.903,49.854,18.791,64.522
	c0.728,0.633,1.502,1.398,3.106,0.664c-3.087-12.697-5.227-25.577,1.886-38.445c1.231,2.555,0.459,4.425-0.018,6.386
	c-4.782,19.683,1.704,36.338,17.782,45.72c1.384,0.809,2.682,2.002,4.754,1.706c-0.277-2.811-0.56-5.598-0.824-8.385
	c-1.487-15.665,5.337-29.25,11.103-42.999c4.662-11.121,11.094-21.26,19.946-29.648c5.639-5.341,11.953-9.595,19.65-11.374
	c3.122-0.722,6.275-0.949,9.26,0.667c3.404,1.843,4.388,4.161,3.398,8.017c-7.785-6.763-11.303-6.898-20.675-1.163
	c-29.823,18.252-42.526,57.287-29.879,90.733c1.07,2.834,2.511,5.459,4.528,7.714c0.948,1.06,1.817,2.905,3.52,2.199
	c1.35-0.561,0.836-2.389,0.92-3.653c0.872-13.248,4.812-25.452,12.318-36.444c1.124-1.646,2.233-3.421,3.74-4.662
	c3.748-3.087,5.78-6.981,6.229-12.473c1.962,5.622,4.097,3.557,6.98,1.562c14.851-10.266,31.61-12.379,49.153-11.146
	c15.014,1.056,26.823-5.179,34.535-17.733c7.075-11.52,8.196-24.518,5.032-37.614c-1.448-6.003-5.399-10.357-11.823-11.55
	c-6.13-1.139-10.838,1.786-12.827,7.623c-0.292,0.855-0.104,1.985-1.332,2.419c-1.074-5.299,0.99-9.462,5.945-12.244
	c5.785-3.25,12.104-2.691,16.679,1.515c3.447,3.171,5.396,7.274,6.279,11.72c2.407,12.131,2.354,24.171-2.468,35.831
	c-4.741,11.471-13.219,18.943-24.832,23.022c-1.563,0.55-3.2,0.987-4.643,1.774c-1.49,0.814-2.27,1.925-0.354,3.382
	c7.069,5.377,11.482,12.872,15.834,20.366c1.283,2.213,2.932,3.272,5.382,3.877c24.354,6.003,38.593-11.281,42.881-27.374
	c1.827-6.857-1.463-12.669-5.562-17.941c-1.905-2.45-4.807-1.839-7.475-2.018c3.729-4.061,7.221-4.099,10.744-0.136
	c3.615,4.068,4.967,9.289,6.793,14.413c8.873-8.796,17.045-10.971,25.766-7.077c5.878,2.625,8.97,9.643,6.716,15.393
	c-0.673,1.715-1.611,3.279-4.392,3.424c2.149-3.79,2.976-7.429,0.68-11.218c-4.424-7.303-11.817-8.705-18.674-3.264
	c-6.415,5.092-10.617,11.93-14.043,19.186c-8.268,17.511-22.207,25.504-41.256,24.802c-3.326-0.122-4.37,0.773-4.56,3.893
	c-0.239,3.98-0.836,7.941-1.323,11.905c-1.666,13.553-8.537,24.373-18.203,33.502c-5.964,5.631-13.279,7.426-21.328,5.289
	c-12.301-3.266-16.675-18.132-8.171-27.834c1.589,1.162,0.321,2.377,0.013,3.487c-3.372,12.118,4.763,21.397,17.275,19.394
	c8.442-1.352,14.057-6.688,18.598-13.903c-6.36-0.926-13.979,3.119-17.586-6.951c3.378,1.272,5.24,2.952,7.791,3.166
	c9.737,0.812,15.043-2.556,16.644-12.332c3.675-22.461,2.857-37.986-22.24-54.232c-3.014-1.95-6.307-3.195-9.826-3.342
	c-14.438-0.601-26.507,5.727-38.241,13.22c6.075,1.331,12.209,0.903,18.1,2.51c6.741,1.839,12.905,4.519,16.936,10.622
	c1.779,2.695,3.086,5.529,2.083,8.919c-1.688,0.222-1.648-1.336-2.153-2.213c-7.634-13.306-25.604-19.889-39.977-14.136
	c-6.211,2.486-10.536,7.572-13.646,13.434c-8.336,15.705-9.071,32.188-5.92,49.479c5.046,27.683,2.048,54.086-15.2,77.562
	c-1.132,1.539-2.782,3.394-1.269,5.406c1.583,2.106,3.388,0.186,4.904-0.451c16.197-6.787,33.353-9.33,50.62-10.627
	c13.395-1.006,21.587-8.692,28-19.092c3.512-5.692,2.663-11.533-1.06-14.604c-1.955-1.613-4.157-3.411-6.64-1.268
	c-2.494,2.154-5.1,4.57-3.698,8.483c0.544,1.521,1.413,2.927,2.12,4.357c-1.302,1.406-2.2,0.408-2.968-0.407
	c-2.695-2.864-2.998-6.117-1.456-9.662c1.593-3.662,3.604-6.806,8.081-7.229c4.741-0.45,7.567,1.96,9.045,6.192
	c2.459,7.053,1.913,13.688-2.646,19.893c-3.676,5.004-8.36,8.943-13.799,13.256c10.674,2.371,20.079,6.038,29.185,10.531
	c4.344,2.145,8.453,4.533,12.215,7.662c9.783,8.139,21.354,6.996,29.835-2.654c4.007-4.561,6.425-10.03,9.282-16.768
	c1.52,7.969-1.996,12.963-5.613,17.74c-3.738,4.936-9.133,7.841-14.68,10.565c14.653,2.697,27.635-2.437,41.299-9.18
	c-1.277,4.647-4.312,5.514-6.729,6.799c-2.479,1.318-5.274,2.027-7.848,3.191c-2.676,1.213-5.961,0.354-8.408,2.524
	c12.308,2.661,31.779,0.67,42.771-4.168c8.805-3.875,14.045-10,14.84-20.022c0.857-10.824-0.84-20.775-7.719-29.796
	c7.387,1.281,10.393,9.549,10.748,29.22c9.944-12.129,12.079-26.111,13.774-40.812c3.812,9.108,1.478,18.574-10.803,45.609
	c1.481,1.141,2.48-0.161,3.544-0.781c16.116-9.403,23.755-23.979,26.082-42.043c1.57-12.199,2.228-24.233-2.311-35.979
	c-8.769-22.693-35.039-32.689-56.662-21.585c-12.65,6.497-17.299,21.115-10.713,33.697c2.785,5.319,8.248,7.994,14.25,6.769
	c2.556-0.521,5.028-1.437,7.707-2.222c-2.373,4.972-7.246,7.322-13.152,6.536c-10.631-1.415-18.315-9.776-18.983-20.654
	c-0.885-14.407,9.938-31.429,23.351-36.581c2.305-0.887,4.743-1.418,7.659-2.271c-4.804-2.283-9.358-1.8-13.85-0.975
	c-5.935,1.089-11.461,3.42-16.84,6.108c-1.92,0.96-3.797,2.188-6.675,1.183c10.169-8.382,21.471-12.729,34.314-12.421
	c12.655,0.305,23.93,5.077,35.162,12.834c-1.123-8.639-2.374-16.248-2.699-23.942c-0.873-20.639,1.482-40.578,12.318-58.766
	c5.165-8.669,12.197-12.025,20.812-9.777c8.82,2.301,13.773,16.115,8.446,23.55c-1.136,1.584-1.136,1.584-4.709,1.569
	c5.479-5.614,5.536-12.836,0.146-18.408c-4.523-4.678-11.33-4.56-16.982,0.674c-6.395,5.92-10.234,13.424-12.637,21.745
	c-4.405,15.253-6.383,30.635-2.628,46.331c0.403,1.691,0.247,3.711,2.295,5.15c1.955-6.797,4.149-13.329,8.495-18.855
	c5.105-6.494,11.269-8.649,18.441-6.464c3.803,1.158,5.734,3.612,5.842,7.72c-1.908-0.048-2.106-1.69-3.033-2.475
	c-4.6-3.895-9.141-4.117-13.944-0.487c-12.896,9.739-16.878,28.563-9.802,44.273c3.802,8.439,12.25,13.43,15.187,23.845
	c2.677-5.369,2.324-9.585,3.154-13.511c1.83-8.655,3.641-17.301,8.631-24.823c4.24-6.391,8.526-7.854,15.367-5.501
	c5.304,1.825,8.129,6.464,7.856,13.12c-0.12,2.953-0.774,5.657-5.053,6.389c0.865-2.573,2.992-4.346,2.388-6.939
	c-0.964-4.143-2.609-7.618-7.339-8.396c-5.168-0.848-9.156,1.041-10.853,5.646c-3.807,10.328-3.958,21.16-4.188,32.375
	c3.634-0.738,6.503-3.062,9.984-3.017c3.464,0.046,6.243,1.437,8.536,4.107c-1.586,1.32-2.535,0.393-3.589,0.064
	c-8.305-2.579-14.875,1.502-16.506,10.229c-1.467,7.847-0.647,15.987-3.092,23.717c-0.783,2.478-1.315,5.031-2.104,8.088
	c6.166-1.282,11.882-2.296,17.557-0.254c1.096,0.396,2.186,0.811,3.266,1.248c0.832,0.339,1.58,1.006,1.258,1.873
	c-0.521,1.396-1.467,0.594-2.362,0.217c-5.557-2.339-11.076-1.812-16.486,0.478c-3.596,1.521-6.483,3.729-8.323,7.46
	c-3.392,6.874-8.58,12.548-13.99,18.751c6.873,1.781,13.297,2.962,18.951,6.225c5.26,3.035,10.668,5.998,12.381,12.038
	c-9.099-8.684-20.391-13.333-33.312-14.351c-2.711-0.214-4.639,0.494-6.522,2.592c-7.634,8.502-17.089,14.207-28.019,17.512
	c-1.854,0.562-4.238,0.828-4.437,3.34c-0.218,2.753,2.409,2.783,4.12,3.559c10.061,4.558,18.867,10.635,24.58,20.392
	c0.926,1.579,2.637,3.172,1.104,5.521c-9.671-14.226-21.986-24.336-39.602-26.45c-3.503-0.42-6.989-0.338-10.44,0.42
	c-3.805,0.835-4.372,3.083-2.718,6.31c1.1,2.146,2.975,3.562,4.703,5.109c6.266,5.615,11.609,11.904,14.928,19.761
	c2.229,5.277,1.952,10.413-0.665,15.409c-2.263,4.316-5.111,4.919-10.863,1.662c4.056,0.448,6.771-0.08,8.54-2.892
	c1.931-3.065,1.277-6.09,0.101-9.092c-7.454-18.991-20.996-30.734-41.236-34.403c-8.654-1.57-17.381-2.772-26.385-5.49
	c0.807,5.879,2.967,10.867,4.795,15.922c6.772,18.73,14.854,36.768,28.398,51.778c6.689,7.413,14.437,13.303,24.208,16.132
	c1.18,0.342,3.188,0.363,2.438,2.258c-0.565,1.43-2.357,0.818-3.564,0.485c-10.317-2.846-18.396-9.055-25.322-16.985
	c-7.393-8.463-13.188-17.961-18.314-27.912c-0.6-1.163-0.661-3.506-2.758-2.828c-1.84,0.597-1.021,2.658-0.839,3.916
	c0.945,6.595,0.846,13.197,0.5,19.84c-1.929-10.232-2.416-20.659-4.419-30.891c-2.188-11.185-5.521-21.936-10.396-32.215
	c-2.295-4.837-9.477-10.082-15.873-11.479c1.32,3.159,3.999,5.775,2.7,10.193c-2.645-4.18-5.263-7.599-7.118-11.391
	c-5.93-12.114-16.305-15.903-28.796-15.916c-42.83-0.045-76.129,17.839-99.701,53.532c-20.007,30.295-27.233,63.923-25.609,99.873
	c1.096,24.263,4.407,48.048,12.977,70.906c2.107,5.62,4.338,11.213,7.516,16.309c1.287,2.062,0.607,3.046-0.869,4.197
	C619.649,676.295,602.649,676.295,585.649,676.295z M641.584,304.742c-0.119-0.107-0.242-0.295-0.324-0.279
	c-0.211,0.042-0.404,0.174-0.605,0.27c0.098,0.102,0.214,0.299,0.291,0.284C641.156,304.977,641.352,304.85,641.584,304.742z"/>
<path fill="#FCFCFC" d="M641.584,304.742c-0.232,0.107-0.428,0.234-0.64,0.274c-0.077,0.015-0.192-0.183-0.291-0.284
	c0.2-0.096,0.395-0.228,0.605-0.27C641.342,304.447,641.465,304.635,641.584,304.742z"/>
<path fill="#363A2A" d="M643.351,677.294c-1.476-1.152-2.155-2.135-0.868-4.198c3.177-5.095,5.408-10.688,7.516-16.308
	c8.569-22.859,11.881-46.646,12.977-70.906c1.624-35.951-5.603-69.579-25.609-99.873c-23.572-35.693-56.871-53.578-99.701-53.533
	c-12.491,0.014-22.866,3.803-28.796,15.916c-1.855,3.792-4.476,7.212-7.118,11.392c-1.299-4.418,1.38-7.034,2.7-10.193
	c-6.396,1.396-13.578,6.643-15.873,11.479c-4.876,10.278-8.207,21.029-10.396,32.215c-2.002,10.229-2.489,20.657-4.418,30.891
	c-0.346-6.643-0.445-13.246,0.5-19.84c0.182-1.258,1.001-3.32-0.839-3.916c-2.097-0.678-2.159,1.665-2.758,2.828
	c-5.128,9.951-10.923,19.449-18.314,27.912c-6.927,7.932-15.005,14.141-25.322,16.985c-1.207,0.332-2.999,0.943-3.564-0.485
	c-0.749-1.896,1.259-1.916,2.438-2.258c9.771-2.829,17.519-8.72,24.208-16.132c13.546-15.012,21.626-33.049,28.398-51.778
	c1.828-5.056,3.988-10.043,4.795-15.922c-9.004,2.718-17.729,3.92-26.385,5.489c-20.24,3.67-33.782,15.412-41.236,34.404
	c-1.178,3.002-1.829,6.025,0.101,9.091c1.771,2.812,4.485,3.341,8.54,2.893c-5.752,3.257-8.602,2.653-10.863-1.662
	c-2.617-4.996-2.894-10.132-0.665-15.409c3.317-7.855,8.662-14.146,14.928-19.761c1.729-1.549,3.604-2.964,4.703-5.109
	c1.654-3.227,1.087-5.475-2.718-6.31c-3.451-0.758-6.938-0.84-10.439-0.42c-17.615,2.113-29.932,12.226-39.603,26.449
	c-1.531-2.348,0.18-3.939,1.104-5.52c5.714-9.757,14.521-15.834,24.581-20.392c1.712-0.774,4.338-0.806,4.12-3.559
	c-0.197-2.512-2.581-2.778-4.437-3.34c-10.93-3.305-20.384-9.01-28.018-17.512c-1.885-2.099-3.812-2.807-6.523-2.592
	c-12.923,1.018-24.215,5.667-33.312,14.351c1.713-6.04,7.121-9.003,12.381-12.038c5.654-3.263,12.078-4.443,18.951-6.225
	c-5.41-6.203-10.6-11.876-13.99-18.751c-1.84-3.731-4.729-5.938-8.324-7.46c-5.41-2.29-10.93-2.815-16.486-0.479
	c-0.896,0.378-1.842,1.181-2.362-0.215c-0.323-0.869,0.425-1.535,1.257-1.873c1.08-0.438,2.17-0.854,3.266-1.25
	c5.675-2.041,11.391-1.027,17.557,0.256c-0.787-3.057-1.32-5.612-2.104-8.089c-2.443-7.729-1.625-15.87-3.092-23.717
	c-1.631-8.729-8.201-12.811-16.506-10.229c-1.053,0.326-2.002,1.257-3.588-0.063c2.293-2.673,5.072-4.062,8.536-4.107
	c3.481-0.047,6.352,2.275,9.984,3.016c-0.229-11.215-0.382-22.049-4.188-32.375c-1.696-4.604-5.685-6.492-10.853-5.645
	c-4.729,0.775-6.375,4.252-7.339,8.396c-0.604,2.596,1.522,4.364,2.388,6.938c-4.277-0.729-4.933-3.436-5.053-6.387
	c-0.271-6.656,2.554-11.295,7.857-13.121c6.84-2.354,11.127-0.89,15.367,5.501c4.99,7.522,6.801,16.169,8.631,24.823
	c0.83,3.926,0.478,8.142,3.154,13.511c2.937-10.415,11.385-15.405,15.187-23.845c7.076-15.711,3.093-34.535-9.802-44.273
	c-4.805-3.629-9.346-3.407-13.945,0.488c-0.926,0.783-1.124,2.426-3.033,2.475c0.107-4.107,2.039-6.562,5.842-7.721
	c7.174-2.186,13.336-0.031,18.441,6.463c4.346,5.527,6.541,12.062,8.496,18.855c2.047-1.439,1.891-3.459,2.295-5.149
	c3.755-15.695,1.777-31.078-2.628-46.331c-2.402-8.321-6.243-15.824-12.637-21.745c-5.652-5.234-12.459-5.352-16.983-0.674
	c-5.389,5.572-5.33,12.793,0.146,18.408c-3.573,0.015-3.573,0.015-4.709-1.569c-5.327-7.435-0.374-21.249,8.446-23.55
	c8.615-2.248,15.647,1.108,20.812,9.777c10.836,18.188,13.191,38.127,12.318,58.767c-0.325,7.693-1.576,15.303-2.699,23.941
	c11.233-7.756,22.507-12.529,35.162-12.834c12.845-0.31,24.146,4.039,34.314,12.422c-2.877,1.005-4.754-0.224-6.674-1.184
	c-5.38-2.688-10.906-5.021-16.841-6.109c-4.489-0.824-9.046-1.309-13.85,0.975c2.916,0.854,5.354,1.386,7.66,2.271
	c13.412,5.153,24.233,22.174,23.35,36.582c-0.668,10.877-8.354,19.237-18.982,20.653c-5.907,0.786-10.78-1.563-13.153-6.537
	c2.679,0.785,5.152,1.699,7.707,2.224c6.002,1.227,11.465-1.449,14.25-6.77c6.586-12.583,1.938-27.2-10.713-33.697
	c-21.623-11.104-47.894-1.108-56.661,21.585c-4.538,11.744-3.882,23.78-2.311,35.979c2.327,18.063,9.966,32.639,26.082,42.043
	c1.062,0.62,2.062,1.922,3.544,0.781c-12.279-27.034-14.613-36.501-10.803-45.608c1.695,14.7,3.83,28.683,13.774,40.812
	c0.355-19.671,3.361-27.938,10.749-29.22c-6.879,9.021-8.577,18.973-7.72,29.796c0.796,10.022,6.035,16.147,14.841,20.022
	c10.989,4.838,30.463,6.829,42.77,4.168c-2.447-2.17-5.731-1.312-8.408-2.524c-2.571-1.164-5.368-1.873-7.848-3.191
	c-2.418-1.285-5.451-2.15-6.729-6.799c13.664,6.743,26.646,11.877,41.3,9.18c-5.548-2.726-10.941-5.631-14.681-10.565
	c-3.617-4.777-7.133-9.771-5.612-17.74c2.856,6.735,5.274,12.207,9.281,16.768c8.479,9.65,20.052,10.793,29.835,2.654
	c3.762-3.129,7.871-5.52,12.216-7.662c9.104-4.493,18.51-8.16,29.184-10.531c-5.438-4.312-10.123-8.252-13.799-13.256
	c-4.561-6.204-5.105-12.841-2.646-19.894c1.478-4.23,4.305-6.642,9.045-6.191c4.478,0.426,6.488,3.568,8.081,7.229
	c1.542,3.545,1.239,6.798-1.456,9.66c-0.768,0.816-1.666,1.815-2.968,0.408c0.707-1.43,1.576-2.836,2.12-4.356
	c1.4-3.912-1.204-6.328-3.698-8.482c-2.481-2.145-4.685-0.348-6.64,1.266c-3.722,3.072-4.57,8.912-1.06,14.605
	c6.413,10.396,14.605,18.085,28,19.091c17.269,1.297,34.424,3.84,50.62,10.627c1.518,0.637,3.321,2.559,4.904,0.451
	c1.515-2.014-0.137-3.867-1.268-5.406c-17.249-23.476-20.247-49.88-15.201-77.562c3.151-17.291,2.416-33.773-5.92-49.479
	c-3.109-5.86-7.436-10.946-13.646-13.433c-14.372-5.753-32.343,0.83-39.977,14.136c-0.504,0.877-0.465,2.437-2.153,2.213
	c-1.003-3.39,0.304-6.225,2.083-8.919c4.029-6.104,10.193-8.782,16.937-10.622c5.89-1.606,12.022-1.18,18.099-2.51
	c-11.734-7.493-23.804-13.821-38.241-13.22c-3.521,0.147-6.812,1.392-9.826,3.342c-25.099,16.246-25.915,31.771-22.24,54.233
	c1.601,9.776,6.905,13.145,16.644,12.332c2.551-0.215,4.413-1.896,7.791-3.166c-3.605,10.069-11.226,6.024-17.586,6.95
	c4.541,7.216,10.154,12.552,18.598,13.904c12.515,2.004,20.647-7.275,17.275-19.395c-0.31-1.109-1.576-2.325,0.013-3.487
	c8.504,9.702,4.13,24.568-8.171,27.833c-8.049,2.137-15.364,0.344-21.328-5.289c-9.666-9.128-16.537-19.948-18.203-33.5
	c-0.487-3.965-1.084-7.926-1.323-11.906c-0.188-3.118-1.232-4.016-4.56-3.893c-19.049,0.702-32.988-7.291-41.256-24.802
	c-3.426-7.256-7.628-14.094-14.043-19.186c-6.855-5.441-14.25-4.039-18.674,3.264c-2.295,3.789-1.47,7.429,0.68,11.218
	c-2.779-0.145-3.719-1.708-4.392-3.424c-2.254-5.75,0.838-12.768,6.716-15.393c8.721-3.894,16.893-1.719,25.766,7.077
	c1.826-5.124,3.179-10.345,6.793-14.413c3.523-3.963,7.017-3.925,10.744,0.136c-2.668,0.179-5.567-0.432-7.475,2.018
	c-4.1,5.271-7.39,11.084-5.562,17.941c4.288,16.093,18.526,33.377,42.881,27.373c2.45-0.604,4.099-1.662,5.382-3.876
	c4.352-7.493,8.765-14.988,15.834-20.366c1.916-1.457,1.138-2.568-0.354-3.382c-1.441-0.788-3.078-1.225-4.643-1.774
	c-11.613-4.079-20.091-11.551-24.832-23.022c-4.82-11.659-4.875-23.699-2.468-35.831c0.884-4.446,2.832-8.549,6.279-11.72
	c4.573-4.206,10.894-4.764,16.679-1.515c4.955,2.782,7.021,6.945,5.945,12.244c-1.229-0.434-1.04-1.564-1.332-2.419
	c-1.989-5.837-6.697-8.762-12.827-7.623c-6.424,1.193-10.375,5.547-11.823,11.55c-3.164,13.096-2.044,26.095,5.032,37.614
	c7.712,12.554,19.521,18.789,34.535,17.733c17.543-1.233,34.304,0.879,49.153,11.146c2.885,1.995,5.02,4.06,6.98-1.562
	c0.448,5.492,2.48,9.386,6.229,12.473c1.507,1.24,2.616,3.017,3.74,4.662c7.507,10.992,11.446,23.195,12.318,36.445
	c0.084,1.265-0.43,3.094,0.92,3.653c1.701,0.705,2.57-1.142,3.52-2.2c2.019-2.255,3.458-4.88,4.528-7.714
	c12.647-33.446-0.056-72.48-29.879-90.733c-9.372-5.735-12.89-5.6-20.675,1.163c-0.988-3.856-0.006-6.174,3.398-8.017
	c2.983-1.616,6.138-1.388,9.26-0.667c7.697,1.779,14.013,6.033,19.65,11.374c8.854,8.388,15.284,18.527,19.946,29.648
	c5.766,13.749,12.59,27.334,11.103,42.999c-0.267,2.788-0.547,5.573-0.824,8.386c2.072,0.295,3.37-0.899,4.754-1.707
	c16.078-9.382,22.564-26.037,17.782-45.72c-0.478-1.961-1.249-3.831-0.019-6.386c7.112,12.868,4.975,25.749,1.887,38.444
	c1.604,0.735,2.379-0.03,3.106-0.663c16.888-14.669,28.935-37.393,18.79-64.522c-3.657-9.781-9.81-16.865-19.112-21.327
	c-2.929-1.404-6.091-2.446-8.862,0.107c-2.709,2.495-2.75,5.833-2.219,9.286c0.454,2.972,3.252,4.539,4.032,7.268
	c0.021,0.066,0.25,0.071,0.384,0.104c-0.046-0.04-0.091-0.079-0.136-0.119c-5.235-1.306-7.774-4.91-7.938-11.269
	c-0.16-6.25,2.305-9.945,7.448-11.537c5.88-1.819,10.77,0.192,15.386,3.614c4.823,3.578,8.236,8.467,11.77,13.093
	c1.146-0.507,0.871-1.255,0.936-1.856c2.271-21.513-22.838-42.742-39.173-42.678c-10.88,0.042-18.742,5.127-23.905,14.458
	c-2.432,4.393-1.378,9.915,2.243,13.355c3.146,2.988,5.834,0.001,8.675-0.89c0.208-0.065,0.532,0.24,0.898,0.42
	c-1.467,2.962-3.731,4.961-7.075,4.443c-4.123-0.639-7.558-2.698-8.992-6.953c-2.558-7.576-0.469-14.082,4.82-19.765
	c11.469-12.32,30.098-13.616,43.979-2.955c6.321,4.856,11.938,10.455,16.369,17.297c7.863-11.63,15.666-14.615,26.065-10.215
	c8.343,3.528,14.734,15.514,12.906,25.215c-0.651-1.952-1.092-3.3-1.555-4.639c-1.646-4.762-3.739-9.272-7.359-12.907
	c-5.118-5.139-11.166-5.49-17.547-3.105c-5.295,1.979-7.84,6.771-7.772,13.798c0.028,3.188,0.704,6.258,1.51,9.326
	c4.067,15.523,4.879,31.223,2.283,47.063c-1.146,7.006-1.238,6.987,5.555,7.013c0.199,0.001,0.397,0.338,0.803,0.703
	c-5.129,1.606-9.13,4.47-11.824,9.113c-3.727,6.423-3.803,6.411,3.641,7.097c2.514,0.231,4.912,0.774,7.232,1.777
	c4.271,1.846,7.46,4.662,8.955,9.135c-4.314-3.266-8.539-6.484-13.815-7.911c-5.689-1.538-10.323-0.972-14.629,4.146
	c-9.915,11.786-22.162,20.588-36.913,25.576c-2.243,0.758-4.182,1.952-6.01,3.454c-9.778,8.031-16.12,18.281-18.448,30.615
	c-3.91,20.713-0.494,40.603,9.61,58.93c11.325,20.542,34.967,29.528,56.473,22.487c13.279-4.349,19.298-12.721,19.217-27.105
	c2.255,2.239,3.386,1.04,4.222-1.135c3.554-9.253,4.981-18.617,1.774-28.307c-6.671-20.155-20.428-33.148-40.393-39.685
	c-15.6-5.105-27.272,4.203-25.843,20.408c0.204,2.318,0.489,4.653,1.011,6.918c1.896,8.223,10.455,14.405,18.626,13.578
	c5.792-0.587,7.95-3.674,8.646-12.367c2.912,6.735,2.086,11.36-2.474,13.83c-5.684,3.079-13.739,2.36-18.738-1.705
	c-4.185-3.404-7.362-7.656-10.323-12.117c-0.814-1.228-1.152-3.087-3.309-3.465c-0.128,0.854-0.166,1.493-0.326,2.1
	c-0.293,1.115,0.658,3.13-1.498,2.971c-1.479-0.107-1.05-1.854-1.216-2.911c-0.604-3.85-0.32-7.771,0.794-11.397
	c2.764-8.994,6.746-17.062,17.25-19.374c16.549-3.641,30.623,0.611,42.303,12.849c1.539,1.612,3.004,3.293,4.975,5.46
	c1.064-6.216,0.943-11.655,0.324-17.062c-1.331-11.612-2.676-23.314-18.072-25.696c5.78-2.766,8.972-2.229,12.66,1.896
	c2.357,2.635,4.118,5.719,5.16,9.066c1.14,3.667,2.078,5.712,6.506,2.892c4.463-2.845,7.269-1.464,8.859,3.06
	c-6.871-4.26-10-3.011-11.677,5.24c-2.562,12.621-0.226,24.236,8.25,34.951c0.481-8.667,1.489-16.695,4.428-24.353
	c4.062-10.586,12.72-15.869,22.996-14.028c10.977,1.967,17.65,9.729,17.874,20.788c0.107,5.346-4.367,9.029-9.492,7.814
	c8.992-5.939,9.155-13.894,0.434-21.006c-10.221-8.334-24.758-3.359-28.891,10.188c-5.285,17.322-1.438,34.784-0.859,52.912
	c9.409-10.391,10.185-10.864,15.979-9.651c-4.027,2.103-7.374,4.466-10.137,7.567c-8.256,9.279-12.896,20.483-17.06,31.949
	c-0.927,2.553,0.204,3.081,2.54,3.229c4.812,0.306,9.719,0.416,14.369,1.521c4.104,0.978,6.459-0.129,8.834-3.34
	c1.201-1.623,1.639-4.918,5.02-4.299c-1.601,3.243-3.098,6.275-4.741,9.606c10.812,0.857,18.178-4.971,25.596-10.801
	c-3.56,7.278-10.115,10.975-17.262,14.768c10.25,7.031,18.424,15.121,22.872,26.436c-6.78-5.825-11.715-13.595-19.608-18.452
	c5.315,14.922,6.006,30.718,10.332,45.682c2.09,7.228,5.162,14.09,10.756,19.46c7.484,7.185,12.811,6.848,19.057-1.281
	c0.738-0.961,1.336-2.316,2.611-1.515c1.066,0.674,0.484,2.003,0.119,3.159c-3.3,10.477-12.912,13.608-21.609,6.854
	c-7.271-5.647-11.055-13.601-13.938-22.062c-1.081-3.168-2.037-6.379-3.17-9.944c-2.535,2.577-3.589,5.231-4.596,7.841
	c-5.729,14.834-5.384,29.97-1.938,45.2c0.311,1.373,1.725,3.069-0.165,3.691c-1.899,0.626-2.046-1.723-2.612-2.98
	c-1.858-4.122-2.888-8.5-3.562-12.945c-2.286-15.062,1.19-29.109,7.729-42.566c2.353-4.84,3.344-9.58,0.301-14.777
	c-11.19,16.68-18.831,19.886-26.997,11.374c1.148,0,2.141,0.01,3.132-0.001c12.099-0.139,19.43-5.758,20.765-15.912
	c1.646-12.509-4.553-23.085-15.527-26.321c-3.349-0.988-6.735-1.969-10.176-2.501c-13.851-2.146-24.729,4.403-27.095,16.737
	c-3.454,18.005-1.706,35.258,7.063,51.854c14.925,28.242,23.701,58.522,27.856,90.151c3.262,24.835,2.211,49.51-3.032,74.005
	C677.351,677.294,660.351,677.294,643.351,677.294z M639.056,306.016c0.077,0.015,0.192-0.183,0.29-0.283
	c-0.199-0.096-0.395-0.229-0.604-0.27c-0.082-0.018-0.205,0.17-0.324,0.279C638.648,305.849,638.844,305.977,639.056,306.016z"/>
</svg>
