<?xml version="1.0" encoding="utf-8"?>
<!-- Generator: Adobe Illustrator 16.0.0, SVG Export Plug-In . SVG Version: 6.00 Build 0)  -->
<!DOCTYPE svg PUBLIC "-//W3C//DTD SVG 1.1//EN" "http://www.w3.org/Graphics/SVG/1.1/DTD/svg11.dtd">
<svg version="1.1" xmlns="http://www.w3.org/2000/svg" xmlns:xlink="http://www.w3.org/1999/xlink" x="0px" y="0px" width="1280px"
	 height="800px" viewBox="0 0 1280 800" enable-background="new 0 0 1280 800" xml:space="preserve">
<g id="Capa_2">
</g>
<g id="Capa_1">
	<path fill="#3D2334" d="M1265.437,338.874c-5.874-1.704-11.769-3.335-17.595-5.186c-24.338-7.738-48.02-17.305-72.045-25.914
		c-122.283-43.816-244.541-87.699-366.803-131.574c-54.732-19.642-109.447-39.326-164.181-58.973
		c-2.218-0.796-4.544-1.307-6.751-2.136c-0.651-0.245-1.324-0.512-1.891-0.902c-7.963,0.035-15.924-0.767-23.905-0.682
		c-8.092,0.087-16.177,0.452-24.266,0.635c-3.998,0.423-8.124,0.402-11.966,0.615c-3.174,0.176-7.177,0.367-10.674-0.498
		c-0.459,0.102-0.967,0.142-1.5,0.162c-21.212,0.809-42.425,1.6-63.633,2.475c-26.438,1.091-52.87,2.285-79.309,3.383
		c-35.315,1.465-70.632,2.859-105.947,4.323c-34.224,1.42-68.446,2.916-102.67,4.334c-32.651,1.354-65.305,2.637-97.958,3.979
		c-32.35,1.328-64.698,2.69-97.049,4.037v2.373c22.832,8.583,45.667,17.154,68.494,25.75c18.689,7.039,37.369,14.104,56.053,21.159
		c0.056-0.082,0.143-0.156,0.165-0.245c2.706-10.968,9.37-14.058,19.853-14.589c11.54-0.584,23.097-0.844,34.646-1.271
		c25.76-0.95,51.517-1.928,77.277-2.872c23.392-0.857,46.786-1.663,70.177-2.53c26.055-0.964,52.111-1.971,78.165-2.958
		c20.922-0.794,41.851-1.483,62.767-2.417c14.204-0.633,28.432-0.852,42.606-2.15c3.545-0.325,7.11-0.225,10.526,1.09
		c5.048,1.942,7.437,5.905,7.346,12.27c-0.078,5.476-2.584,9.079-7.583,10.808c-2.065,0.715-4.224,1.062-6.397,1.148
		c-22.207,0.879-44.413,1.707-66.62,2.586c-32.564,1.291-65.127,2.638-97.694,3.913c-18.455,0.723-36.916,1.308-55.372,2.029
		c-28.125,1.098-56.246,2.271-84.371,3.389c-16.186,0.645-32.372,1.243-48.56,1.86c-2.005,0.077-3.912,0.486-5.626,1.587
		c33.663,12.691,67.326,25.381,100.989,38.073c5.773,2.178,5.879,2.202,4.719,8.287c-6.34,33.243-12.63,66.499-19.144,99.708
		c-6.322,32.234-12.86,64.427-19.375,96.62c-3.072,15.184-6.112,30.374-9.528,45.48c-4.46,19.716-0.166,37.319,11.812,53.342
		c12.689,16.975,28.315,30.774,45.793,42.574c51.808,34.979,108.225,59.91,168.218,77.005
		c36.024,10.266,72.667,17.557,109.765,22.66c17.515,2.407,35.056,4.452,52.73,5.303c5.009,0.24,9.99,1.112,14.541,3.507H787.91
		c0.332-2.112,2.013-2.204,3.586-2.295c15.579-0.906,31.127-2.24,46.598-4.264c38.118-4.98,75.966-11.282,112.171-24.847
		c13.985-5.237,27.414-11.697,39.286-20.926c12.064-9.379,18.611-21.623,19.125-37.101c0.433-13.042,2.708-25.913,4.244-38.854
		c1.977-16.667,3.861-33.35,5.75-50.03c2.229-19.721,4.389-39.452,6.636-59.171c1.696-14.896,3.62-29.761,4.705-44.727
		c0.854-11.816,2.284-23.589,3.369-35.388c0.14-1.533,0.759-1.941,2.146-2.11c25.972-3.173,51.939-6.369,77.903-9.597
		c23.026-2.863,46.042-5.793,69.068-8.654c26.262-3.263,52.528-6.481,78.794-9.723c1.272-0.157,2.546-0.326,3.812-0.537
		c0.863-0.145,2.015,0.341,2.176-1.281C1267.432,339.404,1266.52,339.188,1265.437,338.874z M1022.812,376.641
		c-9.383,1.128-18.751,2.364-28.129,3.542c-17.48,2.194-34.973,4.326-52.449,6.577c-14.353,1.849-28.677,3.902-43.03,5.738
		c-13.474,1.724-26.977,3.227-40.455,4.925c-13.186,1.662-26.351,3.471-39.531,5.168c-12.887,1.661-25.787,3.237-38.675,4.896
		c-10.056,1.297-20.099,2.708-30.159,3.982c-6.054,0.769-12.146,1.264-18.188,2.12c-1.687,0.239-2.522-0.897-3.751-1.354
		c-16.299-6.04-32.578-12.132-48.85-18.244c-22.374-8.404-44.733-16.849-67.106-25.253c-21.266-7.988-42.547-15.932-63.813-23.918
		c-22.374-8.402-44.739-16.833-67.108-25.246c-20.708-7.787-41.415-15.573-62.125-23.352c-23.021-8.647-46.047-17.283-69.07-25.93
		c-20.617-7.744-41.209-15.556-61.874-23.172c-2.747-1.013-3.155-2.084-2.192-4.689c2.47-6.677,2.409-6.847,9.173-4.322
		c22.484,8.39,44.927,16.894,67.395,25.333c21.172,7.953,42.359,15.866,63.531,23.819c22.558,8.475,45.103,16.988,67.661,25.46
		c21.267,7.987,42.547,15.932,63.813,23.917c22.375,8.401,44.74,16.832,67.109,25.246c20.709,7.787,41.422,15.551,62.122,23.359
		c15.614,5.89,31.216,11.819,46.81,17.764c1.987,0.759,3.988,1.123,6.088,0.843c5.66-0.753,11.313-1.552,16.977-2.288
		c9.271-1.207,18.549-2.397,27.827-3.558c17.68-2.214,35.368-4.35,53.043-6.622c14.351-1.844,28.672-3.92,43.028-5.751
		c15.037-1.917,30.105-3.59,45.144-5.505c14.355-1.827,28.679-3.886,43.032-5.733c11.813-1.518,23.649-2.87,35.473-4.305
		c5.083-0.618,10.178-1.146,15.238-1.921c5.724-0.877,5.117-1.188,6.001,5.368C1026.061,375.801,1024.788,376.403,1022.812,376.641z
		"/>
	<path fill-rule="evenodd" clip-rule="evenodd" fill="#B52B4A" d="M173.149,197.885c-4.007,0.897-5.375,2.162-5.898,6.298
		c-1.792,14.207-3.472,28.428-5.18,42.646c-2.461,20.493-4.969,40.979-7.344,61.483c-2.147,18.541-4.249,37.089-6.176,55.655
		c-1.926,18.567-3.972,37.113-7.244,55.502c-2.692,15.133-0.252,29.756,4.99,43.928c6.505,17.588,13.445,35.014,20.18,52.517
		c0.673,1.748,1.359,3.508,1.823,5.318c0.967,3.766-0.424,5.931-4.304,6.541c-2.432,0.384-4.916,0.498-7.381,0.6
		c-28.818,1.18-57.592,3.087-86.343,5.339c-3.346,0.263-6.694,0.521-10.042,0.75c-1.788,0.127-3.634,0.31-4.733-1.595
		c-1.083-1.879-0.522-3.619,0.534-5.289c7.448-11.772,14.113-24.006,21.147-36.022c8.733-14.918,17.518-29.804,27.049-44.234
		c6.92-10.479,9.973-22.292,11.509-34.535c3.999-31.845,7.902-63.703,11.732-95.568c3.324-27.65,6.495-55.319,9.736-82.979
		c1.585-13.536,3.166-27.073,4.774-40.606c0.294-2.48-0.058-4.932-0.134-7.395c0.055-0.082,0.142-0.156,0.164-0.245
		c2.706-10.968,9.37-14.058,19.853-14.589c11.54-0.584,23.097-0.844,34.646-1.271c25.76-0.95,51.517-1.928,77.277-2.872
		c23.392-0.857,46.786-1.663,70.177-2.53c26.055-0.964,52.111-1.971,78.165-2.958c20.922-0.794,41.851-1.483,62.767-2.417
		c14.204-0.633,28.432-0.852,42.606-2.15c3.545-0.325,7.11-0.225,10.526,1.09c5.048,1.942,7.437,5.905,7.346,12.27
		c-0.078,5.476-2.584,9.079-7.583,10.808c-2.065,0.715-4.224,1.062-6.397,1.148c-22.207,0.879-44.413,1.707-66.62,2.586
		c-32.564,1.291-65.127,2.638-97.694,3.913c-18.455,0.723-36.916,1.308-55.372,2.029c-28.125,1.098-56.246,2.271-84.371,3.389
		c-16.186,0.645-32.372,1.243-48.56,1.86C176.77,196.375,174.864,196.785,173.149,197.885z"/>
	<path fill-rule="evenodd" clip-rule="evenodd" fill="#3D2334" stroke="#3D2334" stroke-width="2.0844" stroke-miterlimit="10" d="
		M1025.769,373.533c0.292,2.268-0.98,2.87-2.957,3.107c-9.383,1.128-18.751,2.364-28.129,3.542
		c-17.48,2.194-34.973,4.326-52.449,6.577c-14.353,1.849-28.677,3.902-43.03,5.738c-13.474,1.724-26.977,3.227-40.455,4.925
		c-13.186,1.662-26.351,3.471-39.531,5.168c-12.887,1.661-25.787,3.237-38.675,4.896c-10.056,1.297-20.099,2.708-30.159,3.982
		c-6.054,0.769-12.146,1.264-18.188,2.12c-1.687,0.239-2.522-0.897-3.751-1.354c-16.299-6.04-32.578-12.132-48.85-18.244
		c-22.374-8.404-44.733-16.849-67.106-25.253c-21.266-7.988-42.547-15.932-63.813-23.918c-22.374-8.402-44.739-16.833-67.108-25.246
		c-20.708-7.787-41.415-15.573-62.125-23.352c-23.021-8.647-46.047-17.283-69.07-25.93c-20.617-7.744-41.209-15.556-61.874-23.172
		c-2.747-1.013-3.155-2.084-2.192-4.689c2.47-6.677,2.409-6.847,9.173-4.322c22.484,8.39,44.927,16.894,67.395,25.333
		c21.172,7.953,42.359,15.866,63.531,23.819c22.558,8.475,45.103,16.988,67.661,25.46c21.267,7.987,42.547,15.932,63.813,23.917
		c22.375,8.401,44.74,16.832,67.109,25.246c20.709,7.787,41.422,15.551,62.122,23.359c15.614,5.89,31.216,11.819,46.81,17.764
		c1.987,0.759,3.988,1.123,6.088,0.843c5.66-0.753,11.313-1.552,16.977-2.288c9.271-1.207,18.549-2.397,27.827-3.558
		c17.68-2.214,35.368-4.35,53.043-6.622c14.351-1.844,28.672-3.92,43.028-5.751c15.037-1.917,30.105-3.59,45.144-5.505
		c14.355-1.827,28.679-3.886,43.032-5.733c11.813-1.518,23.649-2.87,35.473-4.305c5.083-0.618,10.178-1.146,15.238-1.921
		C1025.491,367.288,1024.885,366.978,1025.769,373.533z"/>
</g>
</svg>
