<?xml version="1.0" encoding="utf-8"?>
<!-- Generator: Adobe Illustrator 16.0.0, SVG Export Plug-In . SVG Version: 6.00 Build 0)  -->
<!DOCTYPE svg PUBLIC "-//W3C//DTD SVG 1.1//EN" "http://www.w3.org/Graphics/SVG/1.1/DTD/svg11.dtd">
<svg version="1.1" xmlns="http://www.w3.org/2000/svg" xmlns:xlink="http://www.w3.org/1999/xlink" x="0px" y="0px" width="1280px"
	 height="800px" viewBox="0 0 1280 800" enable-background="new 0 0 1280 800" xml:space="preserve">
<g id="Capa_1">
</g>
<g id="Capa_2">
</g>
<g id="Capa_3">
	<g>
		<path fill="#D6CECE" d="M273.045,404.548c0-0.272,0-0.546,0-0.818c33.554-29.707,67.09-59.432,100.71-89.065
			c1.886-1.664,2.289-3.351,2.287-5.642c-0.044-55.23-0.007-110.456-0.109-165.685c-0.007-3.181,0.769-3.999,3.97-3.98
			c25.908,0.14,51.819,0.148,77.727-0.012c3.214-0.019,3.688,0.954,3.679,3.854c-0.108,29.728-0.067,59.455-0.067,89.182
			c0,1.301,0,2.601,0,4.652c1.377-1.207,2.157-1.885,2.931-2.568c46.717-41.353,93.467-82.671,140.12-124.099
			c6.151-5.462,12.83-10.378,18.146-16.754c0.545,0,1.092,0,1.636,0c0.535,0.593,1.018,1.244,1.611,1.77
			c45.779,40.56,91.564,81.112,137.358,121.662c69.449,61.497,138.895,122.999,208.4,184.44c1.978,1.747,2.163,2.695,0.34,4.727
			c-10.276,11.461-20.456,23.007-30.505,34.67c-1.832,2.128-2.764,1.914-4.676,0.207c-14.303-12.815-28.706-25.518-43.089-38.244
			c-7.506-6.639-15.03-13.259-23.148-20.422c0,2.226,0,3.666,0,5.106c0,123.68-0.025,247.355,0.114,371.032
			c0.007,4.418-1.285,5.158-5.36,5.154c-161.314-0.105-322.624-0.105-483.938,0.011c-4.247,0.003-5.279-1.032-5.274-5.274
			c0.124-123.54,0.102-247.081,0.077-370.625c-0.001-1.359,0.419-2.848-0.546-4.328c-1.433,1.236-2.679,2.286-3.899,3.364
			c-18.979,16.782-37.95,33.576-56.936,50.35c-2.235,1.974-4.655,5.46-6.803,5.323c-2.167-0.139-4.133-3.888-6.131-6.105
			C292.117,425.81,282.584,415.176,273.045,404.548z"/>
	</g>
</g>
</svg>
