<?xml version="1.0" encoding="utf-8"?>
<!-- Generator: Adobe Illustrator 16.0.0, SVG Export Plug-In . SVG Version: 6.00 Build 0)  -->
<!DOCTYPE svg PUBLIC "-//W3C//DTD SVG 1.1//EN" "http://www.w3.org/Graphics/SVG/1.1/DTD/svg11.dtd">
<svg version="1.1" id="Capa_1" xmlns="http://www.w3.org/2000/svg" xmlns:xlink="http://www.w3.org/1999/xlink" x="0px" y="0px"
	 width="1280px" height="800px" viewBox="0 0 1280 800" enable-background="new 0 0 1280 800" xml:space="preserve">
<path fill-rule="evenodd" clip-rule="evenodd" fill="#010101" d="M783.967,17.804c4.912,2.318,6.393,6.207,6.381,11.553
	c-0.133,59.353-0.084,118.707-0.083,178.06c0,1.302,0,2.604,0,3.91c-1.733,0.338-2.753-0.697-3.894-1.261
	c-66.175-32.73-132.329-65.503-198.545-98.151c-2.674-1.318-3.21-2.881-3.203-5.531c0.078-25.724,0.142-51.449-0.036-77.172
	c-0.034-4.984,1.23-8.821,5.585-11.407C654.771,17.804,719.368,17.804,783.967,17.804z M655.291,80.653
	c5.214,0,10.43,0.084,15.642-0.023c5.306-0.11,8.313-3.226,8.476-8.567c0.053-1.736,0.053-3.477,0.002-5.214
	c-0.151-5.077-3.088-8.521-8.1-8.62c-10.691-0.21-21.393-0.208-32.084-0.004c-4.981,0.095-7.934,3.585-8.054,8.645
	c-0.042,1.737-0.044,3.477,0.003,5.214c0.146,5.366,3.127,8.445,8.474,8.549C644.861,80.735,650.077,80.655,655.291,80.653z
	 M719.484,80.646c5.348,0,10.697,0.095,16.043-0.028c5.07-0.117,8.068-3.261,8.232-8.374c0.055-1.736,0.041-3.477,0.006-5.214
	c-0.108-5.28-3.104-8.732-8.298-8.82c-10.56-0.179-21.126-0.181-31.685,0.005c-5.055,0.089-8.079,3.465-8.252,8.476
	c-0.064,1.87-0.068,3.746,0.004,5.615c0.197,5.128,3.182,8.197,8.307,8.315C709.053,80.74,714.27,80.646,719.484,80.646z"/>
<path fill-rule="evenodd" clip-rule="evenodd" fill="#010101" d="M847.572,762.066c-0.086-0.457-0.123-0.897-0.137-1.329
	c-0.053,0-0.098,0.005-0.152,0.004c-8.842-0.163-17.689-0.021-26.534-0.075c-6.145-0.039-5.276,0.896-5.276-5.306
	c-0.018-167.516-0.035-335.029,0.078-502.544c0.004-5.838-1.9-9.296-7.229-11.923c-80.604-39.741-161.127-79.645-241.675-119.499
	c-1.31-0.648-2.648-1.306-4.046-1.698c-3.939-1.106-7.975,1.011-9.434,4.779c-0.8,2.065-0.661,4.212-0.661,6.351
	c0,134.28,0,268.56,0,402.84c0,74.242-0.028,148.485,0.086,222.728c0.005,3.525-0.798,4.437-4.363,4.381
	c-14.604-0.228-29.213-0.129-43.82-0.077c-6.152,0.021-9.085,3.012-9.125,9.145c-0.042,6.433,0.034,12.865-0.029,19.298
	c-0.025,2.575,0.818,4.691,2.638,6.477c2.35,2.306,5.299,2.198,8.271,2.198c108.952-0.014,217.904-0.011,326.855-0.011h15.869
	C849.146,785.86,849.781,773.867,847.572,762.066z M724.518,279.991c0.168-5.114,3.078-8.565,8.077-8.666
	c10.69-0.216,21.392-0.209,32.083-0.005c5.033,0.096,7.939,3.502,8.076,8.595c0.045,1.736,0.039,3.476-0.001,5.213
	c-0.125,5.413-3.05,8.485-8.401,8.593c-5.346,0.108-10.695,0.023-16.043,0.023c-5.08,0.004-10.162,0.084-15.24-0.018
	c-5.312-0.107-8.349-3.2-8.547-8.522C724.457,283.469,724.461,281.728,724.518,279.991z M724.523,356.952
	c0.215-5.033,3.229-8.361,8.307-8.45c10.559-0.183,21.125-0.188,31.683-0.001c5.202,0.092,8.132,3.517,8.243,8.846
	c0.033,1.604,0.031,3.208,0,4.812c-0.107,5.632-3.041,8.673-8.641,8.769c-5.213,0.09-10.428,0.02-15.642,0.02
	c-5.081,0.001-10.162,0.074-15.241-0.017c-5.58-0.101-8.556-3.15-8.717-8.765C724.467,360.428,724.449,358.687,724.523,356.952z
	 M660.002,511.351c0.16-4.894,2.99-8.313,7.799-8.416c10.822-0.229,21.656-0.222,32.479-0.007c4.643,0.093,7.586,3.369,7.917,7.996
	c0.152,2.128,0.152,4.285-0.001,6.412c-0.346,4.817-3.463,7.856-8.289,7.966c-5.211,0.118-10.426,0.026-15.639,0.026v0.014
	c-5.08,0-10.16,0.049-15.239-0.013c-6.172-0.073-8.937-2.916-9.034-9.167C659.968,514.559,659.949,512.953,660.002,511.351z
	 M659.998,434.483c0.129-5.511,3.137-8.744,8.674-8.815c10.292-0.134,20.588-0.146,30.879,0.003c5.461,0.08,8.494,3.4,8.686,8.929
	c0.055,1.603,0.062,3.211-0.004,4.812c-0.225,5.577-3.248,8.623-8.798,8.715c-5.212,0.087-10.427,0.02-15.64,0.02
	c-5.08-0.004-10.16,0.068-15.238-0.023c-5.484-0.098-8.375-3.002-8.551-8.425C659.949,437.961,659.957,436.221,659.998,434.483z
	 M659.998,280.048c0.137-5.503,3.15-8.704,8.719-8.774c10.157-0.129,20.318-0.119,30.477-0.008c5.757,0.063,8.857,3.281,9.043,8.986
	c0.056,1.736,0.088,3.48-0.018,5.212c-0.308,5.065-3.392,8.15-8.428,8.258c-5.211,0.111-10.426,0.025-15.639,0.025
	c-5.215,0.003-10.429,0.078-15.641-0.018c-5.464-0.1-8.338-3.022-8.507-8.468C659.951,283.525,659.955,281.785,659.998,280.048z
	 M659.998,357.25c0.135-5.503,3.15-8.709,8.713-8.78c10.158-0.129,20.319-0.118,30.478-0.008c5.759,0.062,8.861,3.278,9.048,8.981
	c0.057,1.736,0.088,3.48-0.018,5.212c-0.307,5.067-3.389,8.155-8.422,8.263c-5.211,0.112-10.426,0.025-15.64,0.025
	c-5.214,0.003-10.429,0.078-15.64-0.018c-5.467-0.1-8.342-3.019-8.513-8.462C659.951,360.727,659.955,358.986,659.998,357.25z
	 M660.012,588.373c0.178-4.81,3.119-8.171,7.963-8.264c10.689-0.203,21.389-0.201,32.078-0.007c4.863,0.089,7.844,3.352,8.155,8.19
	c0.128,1.997,0.128,4.016,0.005,6.013c-0.311,5.059-3.408,8.101-8.48,8.204c-5.211,0.104-10.426,0.022-15.639,0.022
	s-10.429,0.078-15.641-0.022c-5.436-0.104-8.291-3.049-8.449-8.523C659.95,592.116,659.941,590.242,660.012,588.373z
	 M673.839,657.212h10.427c4.812,0.001,9.626-0.055,14.438,0.014c6.417,0.091,9.461,3.225,9.535,9.718
	c0.021,1.869,0.111,3.759-0.104,5.607c-0.477,4.124-3.156,7.142-7.254,7.225c-11.219,0.228-22.447,0.243-33.665,0.001
	c-4.354-0.093-6.915-3.269-7.197-7.644c-0.009-0.134-0.015-0.268-0.021-0.4C659.435,659.299,661.425,657.212,673.839,657.212z
	 M595.288,279.475c0.349-4.895,3.286-8.073,8.164-8.159c10.688-0.189,21.387-0.2,32.075,0.012c4.875,0.097,7.716,3.38,7.94,8.283
	c0.08,1.734,0.062,3.476,0.018,5.211c-0.156,5.973-2.973,8.834-8.895,8.917c-5.078,0.07-10.158,0.015-15.237,0.015
	c-5.212-0.002-10.427,0.078-15.638-0.026c-4.93-0.098-7.968-2.954-8.398-7.843C595.129,283.762,595.136,281.602,595.288,279.475z
	 M643.458,362.793c-0.252,5.16-3.185,7.955-8.441,8.15c-0.267,0.009-0.535,0.006-0.802,0.006h-14.837
	c-5.212-0.003-10.427,0.076-15.637-0.026c-4.949-0.097-7.984-2.929-8.423-7.818c-0.19-2.122-0.18-4.282-0.031-6.41
	c0.343-4.901,3.271-8.094,8.139-8.182c10.688-0.193,21.386-0.201,32.075,0.007c4.879,0.094,7.745,3.371,7.962,8.26
	C643.551,358.781,643.556,360.793,643.458,362.793z M595.292,433.81c0.364-4.878,3.322-8.021,8.217-8.107
	c10.556-0.188,21.119-0.185,31.675-0.018c5.113,0.081,8.072,3.307,8.285,8.376c0.083,2.001,0.09,4.013-0.014,6.012
	c-0.258,4.988-3.143,7.917-8.122,8.034c-5.343,0.126-10.692,0.028-16.039,0.028c-5.212,0.005-10.427,0.089-15.638-0.02
	c-4.883-0.102-7.935-3.014-8.347-7.896C595.13,438.095,595.133,435.935,595.292,433.81z M643.484,670.781
	c-0.123,6.175-2.897,9.059-9.075,9.198c-5.077,0.113-10.159,0.023-15.238,0.023c-4.812,0.001-9.626,0.071-14.437-0.015
	c-6.528-0.118-9.384-3.083-9.495-9.696c-0.027-1.603-0.085-3.215,0.038-4.81c0.376-4.902,3.276-8.097,8.147-8.186
	c10.69-0.192,21.389-0.2,32.079,0.008c4.878,0.095,7.734,3.371,7.961,8.264C643.546,667.303,643.52,669.044,643.484,670.781z
	 M643.455,594.449c-0.256,4.994-3.134,7.932-8.107,8.048c-5.477,0.127-10.959,0.028-16.439,0.028
	c-5.079,0.006-10.16,0.089-15.237-0.018c-4.893-0.103-7.944-3.001-8.361-7.883c-0.181-2.123-0.177-4.283-0.02-6.409
	c0.36-4.882,3.312-8.033,8.203-8.121c10.556-0.189,21.119-0.185,31.675-0.02c5.119,0.08,8.083,3.298,8.297,8.361
	C643.552,590.438,643.559,592.45,643.455,594.449z M643.454,517.287c-0.261,4.981-3.151,7.901-8.14,8.017
	c-5.343,0.124-10.692,0.028-16.039,0.028c-5.212,0.003-10.427,0.088-15.638-0.022c-4.871-0.103-7.924-3.029-8.331-7.914
	c-0.176-2.123-0.175-4.284-0.015-6.408c0.369-4.874,3.333-8.006,8.234-8.091c10.556-0.185,21.119-0.184,31.675-0.015
	c5.101,0.083,8.058,3.322,8.266,8.393C643.551,513.275,643.559,515.288,643.454,517.287z M718.414,760.752
	c-11.505-0.163-23.014-0.067-34.521-0.067c-11.373,0-22.747-0.102-34.118,0.07c-2.868,0.043-3.544-0.823-3.501-3.577
	c0.162-10.167,0.031-20.338,0.077-30.507c0.028-6.324,2.999-9.262,9.395-9.272c18.866-0.03,37.732-0.031,56.599,0.001
	c6.525,0.011,9.502,3.027,9.535,9.668c0.053,10.035-0.088,20.071,0.079,30.104C722.005,759.969,721.26,760.793,718.414,760.752z
	 M724.538,433.846c0.254-4.634,3.144-7.996,7.794-8.093c10.956-0.229,21.926-0.238,32.881,0.022c4.564,0.108,7.367,3.62,7.532,8.267
	c0.056,1.603,0.03,3.209,0.015,4.812c-0.065,6.362-2.918,9.223-9.348,9.283c-5.079,0.047-10.16,0.009-15.24,0.009
	c-5.08-0.012-10.162,0.075-15.24-0.037c-5.096-0.111-8.164-3.184-8.4-8.249C724.438,437.859,724.429,435.846,724.538,433.846z
	 M724.52,511.455c0.188-5.062,3.168-8.462,8.198-8.552c10.692-0.194,21.392-0.197,32.083,0.018c4.83,0.097,7.77,3.502,7.943,8.305
	c0.059,1.602,0.031,3.208,0.016,4.812c-0.064,6.366-2.916,9.233-9.334,9.295c-4.947,0.047-9.893,0.01-14.84,0.01
	c-5.215-0.012-10.43,0.074-15.642-0.036c-5.102-0.108-8.169-3.177-8.415-8.238C724.439,515.201,724.451,513.324,724.52,511.455z
	 M772.762,669.828c-0.026,7.441-2.669,10.111-10.145,10.172c-4.679,0.036-9.357,0.006-14.037,0.006
	c-4.945-0.002-9.895,0.09-14.838-0.025c-6.325-0.148-9.159-3.147-9.232-9.526c-0.018-1.604-0.061-3.211,0.016-4.812
	c0.232-4.851,3.152-8.232,7.996-8.328c10.823-0.212,21.658-0.221,32.48,0.024c4.785,0.108,7.605,3.589,7.752,8.479
	C772.795,667.153,772.766,668.491,772.762,669.828z M772.745,594.263c-0.171,5.1-3.166,8.131-8.345,8.24
	c-5.211,0.109-10.428,0.024-15.641,0.024c-5.215,0.007-10.43,0.083-15.642-0.015c-5.325-0.1-8.392-3.182-8.595-8.475
	c-0.071-1.869-0.082-3.747,0.006-5.614c0.227-4.841,3.168-8.211,8.016-8.31c10.69-0.218,21.391-0.211,32.082-0.017
	c5.037,0.091,7.986,3.492,8.125,8.551C772.803,590.519,772.809,592.394,772.745,594.263z"/>
<path fill-rule="evenodd" clip-rule="evenodd" fill="#FBFBFB" d="M655.291,80.654c-5.214,0-10.43,0.081-15.642-0.021
	c-5.347-0.104-8.327-3.184-8.474-8.549c-0.047-1.737-0.045-3.477-0.003-5.214c0.12-5.06,3.073-8.549,8.054-8.645
	c10.691-0.205,21.393-0.206,32.084,0.004c5.012,0.099,7.948,3.543,8.1,8.62c0.051,1.737,0.051,3.478-0.002,5.214
	c-0.162,5.341-3.17,8.457-8.476,8.567C665.721,80.738,660.505,80.653,655.291,80.654z"/>
<path fill-rule="evenodd" clip-rule="evenodd" fill="#FBFBFB" d="M719.484,80.646c-5.215,0-10.432,0.094-15.643-0.026
	c-5.125-0.118-8.109-3.187-8.307-8.315c-0.072-1.869-0.068-3.745-0.004-5.615c0.173-5.01,3.197-8.386,8.252-8.476
	c10.559-0.186,21.125-0.184,31.685-0.005c5.193,0.088,8.189,3.541,8.298,8.82c0.035,1.737,0.049,3.478-0.006,5.214
	c-0.164,5.113-3.162,8.257-8.232,8.374C730.182,80.742,724.832,80.646,719.484,80.646z"/>
<path fill-rule="evenodd" clip-rule="evenodd" fill="#FBFBFB" d="M683.893,760.685c-11.373,0-22.747-0.102-34.118,0.07
	c-2.868,0.043-3.544-0.823-3.501-3.577c0.162-10.167,0.031-20.338,0.077-30.507c0.028-6.324,2.999-9.262,9.395-9.272
	c18.866-0.03,37.732-0.031,56.599,0.001c6.525,0.011,9.502,3.027,9.535,9.668c0.053,10.035-0.088,20.071,0.079,30.104
	c0.047,2.797-0.698,3.621-3.544,3.58C706.909,760.589,695.4,760.685,683.893,760.685z"/>
<path fill-rule="evenodd" clip-rule="evenodd" fill="#FBFBFB" d="M619.171,680.004c-4.812,0-9.626,0.07-14.437-0.016
	c-6.528-0.118-9.384-3.083-9.495-9.696c-0.027-1.603-0.085-3.215,0.038-4.81c0.376-4.902,3.276-8.097,8.147-8.186
	c10.69-0.192,21.389-0.2,32.079,0.008c4.878,0.095,7.734,3.371,7.961,8.264c0.081,1.734,0.055,3.476,0.02,5.213
	c-0.123,6.175-2.897,9.059-9.075,9.198C629.333,680.093,624.251,680.003,619.171,680.004z"/>
<path fill-rule="evenodd" clip-rule="evenodd" fill="#FBFBFB" d="M684.266,657.212c4.812,0.001,9.626-0.055,14.438,0.014
	c6.417,0.091,9.461,3.225,9.535,9.718c0.021,1.869,0.111,3.759-0.104,5.607c-0.477,4.124-3.156,7.142-7.254,7.225
	c-11.219,0.228-22.447,0.243-33.665,0.001c-4.354-0.093-6.915-3.269-7.197-7.644c-0.009-0.134-0.015-0.268-0.021-0.4
	c-0.563-12.434,1.427-14.521,13.841-14.521C677.314,657.212,680.791,657.212,684.266,657.212z"/>
<path fill-rule="evenodd" clip-rule="evenodd" fill="#FBFBFB" d="M748.58,680.005c-4.945-0.001-9.895,0.091-14.838-0.024
	c-6.325-0.148-9.159-3.147-9.232-9.526c-0.018-1.604-0.061-3.211,0.016-4.812c0.232-4.851,3.152-8.232,7.996-8.328
	c10.823-0.212,21.658-0.221,32.48,0.024c4.785,0.108,7.605,3.589,7.752,8.479c0.041,1.336,0.012,2.674,0.008,4.011
	c-0.026,7.441-2.669,10.111-10.145,10.172C757.938,680.036,753.26,680.006,748.58,680.005z"/>
<path fill-rule="evenodd" clip-rule="evenodd" fill="#FBFBFB" d="M684.157,370.944c-5.214,0.001-10.429,0.076-15.64-0.019
	c-5.467-0.1-8.342-3.019-8.513-8.462c-0.054-1.736-0.05-3.477-0.007-5.213c0.135-5.503,3.15-8.709,8.713-8.78
	c10.158-0.129,20.319-0.118,30.478-0.008c5.759,0.062,8.861,3.278,9.048,8.981c0.057,1.736,0.088,3.48-0.018,5.212
	c-0.307,5.067-3.389,8.155-8.422,8.263C694.586,371.029,689.371,370.942,684.157,370.944z"/>
<path fill-rule="evenodd" clip-rule="evenodd" fill="#FBFBFB" d="M684.152,293.748c-5.215,0.001-10.429,0.076-15.641-0.019
	c-5.464-0.1-8.338-3.022-8.507-8.468c-0.054-1.736-0.05-3.476-0.007-5.213c0.137-5.503,3.15-8.704,8.719-8.774
	c10.157-0.129,20.318-0.119,30.477-0.008c5.757,0.063,8.857,3.281,9.043,8.986c0.056,1.736,0.088,3.48-0.018,5.212
	c-0.308,5.065-3.392,8.15-8.428,8.258C694.58,293.833,689.365,293.747,684.152,293.748z"/>
<path fill-rule="evenodd" clip-rule="evenodd" fill="#FBFBFB" d="M683.795,448.144c-5.08-0.002-10.16,0.07-15.238-0.021
	c-5.484-0.098-8.375-3.002-8.551-8.425c-0.057-1.736-0.049-3.477-0.008-5.214c0.129-5.511,3.137-8.744,8.674-8.815
	c10.292-0.134,20.588-0.146,30.879,0.003c5.461,0.08,8.494,3.4,8.686,8.929c0.055,1.603,0.062,3.211-0.004,4.812
	c-0.225,5.577-3.248,8.623-8.798,8.715C694.223,448.213,689.008,448.146,683.795,448.144z"/>
<path fill-rule="evenodd" clip-rule="evenodd" fill="#FBFBFB" d="M684.094,602.532c-5.213,0-10.429,0.078-15.641-0.022
	c-5.436-0.104-8.291-3.049-8.449-8.523c-0.054-1.87-0.062-3.744,0.008-5.613c0.178-4.81,3.119-8.171,7.963-8.264
	c10.689-0.203,21.389-0.201,32.078-0.007c4.863,0.089,7.844,3.352,8.155,8.19c0.128,1.997,0.128,4.016,0.005,6.013
	c-0.311,5.059-3.408,8.101-8.48,8.204C694.521,602.614,689.307,602.532,684.094,602.532z"/>
<path fill-rule="evenodd" clip-rule="evenodd" fill="#FBFBFB" d="M684.268,525.342c-5.08,0-10.16,0.049-15.239-0.013
	c-6.172-0.073-8.937-2.916-9.034-9.167c-0.026-1.604-0.045-3.209,0.008-4.812c0.16-4.894,2.99-8.313,7.799-8.416
	c10.822-0.229,21.656-0.222,32.479-0.007c4.643,0.093,7.586,3.369,7.917,7.996c0.152,2.128,0.152,4.285-0.001,6.412
	c-0.346,4.817-3.463,7.856-8.289,7.966c-5.211,0.118-10.426,0.026-15.639,0.026C684.268,525.333,684.268,525.337,684.268,525.342z"
	/>
<path fill-rule="evenodd" clip-rule="evenodd" fill="#FBFBFB" d="M748.76,602.53c-5.215,0.004-10.43,0.08-15.642-0.018
	c-5.325-0.1-8.392-3.182-8.595-8.475c-0.071-1.869-0.082-3.747,0.006-5.614c0.227-4.841,3.168-8.211,8.016-8.31
	c10.69-0.218,21.391-0.211,32.082-0.017c5.037,0.091,7.986,3.492,8.125,8.551c0.051,1.87,0.057,3.745-0.007,5.614
	c-0.171,5.1-3.166,8.131-8.345,8.24C759.189,602.612,753.973,602.527,748.76,602.53z"/>
<path fill-rule="evenodd" clip-rule="evenodd" fill="#FBFBFB" d="M748.586,525.337c-5.215-0.006-10.43,0.08-15.642-0.03
	c-5.102-0.108-8.169-3.177-8.415-8.238c-0.09-1.867-0.078-3.744-0.01-5.613c0.188-5.062,3.168-8.462,8.198-8.552
	c10.692-0.194,21.392-0.197,32.083,0.018c4.83,0.097,7.77,3.502,7.943,8.305c0.059,1.602,0.031,3.208,0.016,4.812
	c-0.064,6.366-2.916,9.233-9.334,9.295C758.479,525.38,753.533,525.343,748.586,525.337z"/>
<path fill-rule="evenodd" clip-rule="evenodd" fill="#FBFBFB" d="M748.309,293.747c-5.08,0.002-10.162,0.082-15.24-0.02
	c-5.312-0.107-8.349-3.2-8.547-8.522c-0.064-1.735-0.061-3.477-0.004-5.213c0.168-5.114,3.078-8.565,8.077-8.666
	c10.69-0.216,21.392-0.209,32.083-0.005c5.033,0.096,7.939,3.502,8.076,8.595c0.045,1.736,0.039,3.476-0.001,5.213
	c-0.125,5.413-3.05,8.485-8.401,8.593C759.006,293.829,753.656,293.745,748.309,293.747z"/>
<path fill-rule="evenodd" clip-rule="evenodd" fill="#FBFBFB" d="M748.172,448.141c-5.08-0.006-10.162,0.081-15.24-0.031
	c-5.096-0.111-8.164-3.184-8.4-8.249c-0.094-2.001-0.103-4.015,0.007-6.015c0.254-4.634,3.144-7.996,7.794-8.093
	c10.956-0.229,21.926-0.238,32.881,0.022c4.564,0.108,7.367,3.62,7.532,8.267c0.056,1.603,0.03,3.209,0.015,4.812
	c-0.065,6.362-2.918,9.223-9.348,9.283C758.333,448.185,753.252,448.146,748.172,448.141z"/>
<path fill-rule="evenodd" clip-rule="evenodd" fill="#FBFBFB" d="M748.474,370.948c-5.081,0-10.162,0.073-15.241-0.018
	c-5.58-0.101-8.556-3.15-8.717-8.765c-0.049-1.736-0.066-3.478,0.008-5.213c0.215-5.033,3.229-8.361,8.307-8.45
	c10.559-0.183,21.125-0.188,31.683-0.001c5.202,0.092,8.132,3.517,8.243,8.846c0.033,1.604,0.031,3.208,0,4.812
	c-0.107,5.632-3.041,8.673-8.641,8.769C758.902,371.018,753.688,370.947,748.474,370.948z"/>
<path fill-rule="evenodd" clip-rule="evenodd" fill="#FBFBFB" d="M619.352,293.752c-5.212-0.001-10.427,0.079-15.638-0.025
	c-4.93-0.098-7.968-2.954-8.398-7.843c-0.187-2.122-0.18-4.283-0.028-6.409c0.349-4.895,3.286-8.073,8.164-8.159
	c10.688-0.189,21.387-0.2,32.075,0.012c4.875,0.097,7.716,3.38,7.94,8.283c0.08,1.734,0.062,3.476,0.018,5.211
	c-0.156,5.973-2.973,8.834-8.895,8.917C629.511,293.809,624.431,293.753,619.352,293.752z"/>
<path fill-rule="evenodd" clip-rule="evenodd" fill="#FBFBFB" d="M619.378,370.948c-5.212-0.001-10.427,0.078-15.637-0.024
	c-4.949-0.097-7.984-2.929-8.423-7.818c-0.19-2.122-0.18-4.282-0.031-6.41c0.343-4.901,3.271-8.094,8.139-8.182
	c10.688-0.193,21.386-0.201,32.075,0.007c4.879,0.094,7.745,3.371,7.962,8.26c0.088,2,0.093,4.013-0.005,6.013
	c-0.252,5.16-3.185,7.955-8.441,8.15c-0.267,0.009-0.535,0.006-0.802,0.006C629.269,370.95,624.324,370.95,619.378,370.948z"/>
<path fill-rule="evenodd" clip-rule="evenodd" fill="#FBFBFB" d="M619.294,448.138c-5.212,0.002-10.427,0.086-15.638-0.022
	c-4.883-0.102-7.935-3.014-8.347-7.896c-0.179-2.124-0.176-4.284-0.018-6.409c0.364-4.878,3.322-8.021,8.217-8.107
	c10.556-0.188,21.119-0.185,31.675-0.018c5.113,0.081,8.072,3.307,8.285,8.376c0.083,2.001,0.09,4.013-0.014,6.012
	c-0.258,4.988-3.143,7.917-8.122,8.034C629.99,448.232,624.641,448.135,619.294,448.138z"/>
<path fill-rule="evenodd" clip-rule="evenodd" fill="#FBFBFB" d="M618.909,602.528c-5.079,0.003-10.16,0.086-15.237-0.021
	c-4.893-0.103-7.944-3.001-8.361-7.883c-0.181-2.123-0.177-4.283-0.02-6.409c0.36-4.882,3.312-8.033,8.203-8.121
	c10.556-0.189,21.119-0.185,31.675-0.02c5.119,0.08,8.083,3.298,8.297,8.361c0.085,2.001,0.092,4.014-0.012,6.013
	c-0.256,4.994-3.134,7.932-8.107,8.048C629.871,602.624,624.389,602.525,618.909,602.528z"/>
<path fill-rule="evenodd" clip-rule="evenodd" fill="#FBFBFB" d="M619.276,525.333c-5.212,0.002-10.427,0.087-15.638-0.023
	c-4.871-0.103-7.924-3.029-8.331-7.914c-0.176-2.123-0.175-4.284-0.015-6.408c0.369-4.874,3.333-8.006,8.234-8.091
	c10.556-0.185,21.119-0.184,31.675-0.015c5.101,0.083,8.058,3.322,8.266,8.393c0.082,2.001,0.09,4.014-0.015,6.013
	c-0.261,4.981-3.151,7.901-8.14,8.017C629.971,525.428,624.622,525.332,619.276,525.333z"/>
</svg>
