<?xml version="1.0" encoding="utf-8"?>
<!-- Generator: Adobe Illustrator 16.0.0, SVG Export Plug-In . SVG Version: 6.00 Build 0)  -->
<!DOCTYPE svg PUBLIC "-//W3C//DTD SVG 1.1//EN" "http://www.w3.org/Graphics/SVG/1.1/DTD/svg11.dtd">
<svg version="1.1" id="Capa_1" xmlns="http://www.w3.org/2000/svg" xmlns:xlink="http://www.w3.org/1999/xlink" x="0px" y="0px"
	 width="1280px" height="800px" viewBox="0 0 1280 800" enable-background="new 0 0 1280 800" xml:space="preserve">
<g>
	<path fill-rule="evenodd" clip-rule="evenodd" fill="#EAEBEB" d="M66.825,303.922c0,0-0.08-0.257-0.08-0.257
		c1.542-1.072,1.823-2.644,1.735-4.363c0,0-0.053,0.022-0.053,0.021c0.381-0.168,0.874-0.236,1.128-0.519
		c5.452-6.072,11.74-6.797,18.786-3.042c2.533,1.35,3.126-0.457,3.682-2.34c3.882-13.154,13.436-19.606,26.263-22.154
		c1.04-0.207,2.357-0.76,2.957,0.6c0.474,1.075-0.588,1.773-1.262,2.415c-2.4,2.283-3.817,4.956-3.867,8.532
		c0.686-0.182,1.167-0.169,1.438-0.401c6.869-5.892,14.584-9.153,23.824-7.794c0.665,0.098,1.596,0.284,1.677-0.653
		c0.048-0.56-0.413-1.322-0.874-1.74c-2.648-2.405-5.997-2.895-9.356-2.954c-3.563-0.063-4.021-1.323-2.48-4.354
		c4.045-7.957,9.484-14.813,16.771-19.866c13.458-9.331,27.845-13.157,43.58-5.628c1.396,0.667,2.799,1.257,4.375,1.287
		c0,0-0.053-0.019-0.053-0.019c0.498,0.31,0.996,0.619,1.495,0.929c0,0,0.203,0.115,0.202,0.115c0.282,0.225,0.563,0.45,0.845,0.676
		l-0.017-0.015c0.298,0.289,0.596,0.577,0.893,0.866c0,0,0.005-0.134,0.006-0.134c0.303,1.848,1.524,2.558,3.26,2.631
		c0,0,0.041,0.033,0.041,0.033c0.271,0.266,0.542,0.533,0.812,0.799l0.022,0.021c0.272,0.272,0.544,0.543,0.816,0.815l0.022,0.023
		c0.265,0.27,0.529,0.54,0.794,0.81c0,0,0.048,0.048,0.047,0.048c0.25,0.262,0.499,0.524,0.749,0.786c0,0,0.098,0.117,0.097,0.117
		c0.213,0.242,0.428,0.485,0.642,0.728c0,0,0.129,0.17,0.129,0.17c0.153,1.127,0.661,1.979,1.813,2.328
		c0.241,0.328,0.481,0.657,0.722,0.984c0.305,0.525,0.611,1.05,0.917,1.575c0,0,0.007-0.115,0.007-0.115
		c0.023,1.196,0.448,2.136,1.641,2.591l-0.015-0.01c0.291,0.572,0.582,1.144,0.873,1.716c0,0-0.029-0.062-0.029-0.062
		c0.293,0.583,0.585,1.165,0.878,1.747l-0.016-0.086c0.344,3.534-1.496,5.211-4.708,6.294c-5.715,1.928-10.146,5.38-11.101,8.159
		c0.431-0.024,0.86,0.047,1.218-0.081c13.733-4.932,25.606-2.292,35.457,8.663c1.054,1.172,2.332,2.189,3.951,2.048
		c8.121-0.709,15.228,2.269,22.171,5.909c0,0-0.146-0.001-0.146-0.001c0.307,0.305,0.613,0.61,0.919,0.916
		c0,0-0.083-0.078-0.083-0.079c0.305,0.304,0.609,0.607,0.913,0.911l0.026-0.124c-0.041,1.495,0.417,2.714,1.864,3.391
		c0,0-0.092-0.093-0.092-0.092c-0.816,3.168,1.286,5.817,1.592,8.837c0.421,4.154-2.055,7.723-1.708,11.757
		c0.018,0.243-0.071,0.436-0.267,0.579c-0.211,0.278-0.423,0.557-0.635,0.835c0,0,0.052-0.055,0.053-0.054
		c-0.297,0.3-0.594,0.6-0.891,0.899l0.198-0.068c0,0,0.068,0.198,0.068,0.198c-2.518,0.189-3.475,1.748-3.571,4.062
		c0,0,0.006-0.075,0.006-0.074c-0.298,0.298-0.595,0.595-0.893,0.892l0.044-0.013c-1.586-0.001-2.922,0.743-4.251,1.467
		c-4.396,2.395-8.983,3.282-13.959,2.197c-1.722-0.376-3.56-0.222-5.345-0.31l0.029,0.028c-0.653-1.597-2.036-1.699-3.471-1.694
		c-11.883,5.379-23.47,5.425-34.597-2.004c-1.449-0.967-2.566-0.398-3.861,0.244c-15.769,7.822-31.431,7.558-46.863-0.894
		c-2.048-1.122-3.425-0.893-5.264,0.34c-11.467,7.69-23.412,8.203-35.572,1.797c-1.969-1.037-3.139-0.711-4.82,0.412
		c-6.448,4.305-13.284,5.498-20.515,1.915c-0.649-0.32-1.299-0.64-1.949-0.959c-0.467-0.288-0.933-0.576-1.399-0.864
		c-0.288-0.291-0.575-0.583-0.863-0.874c0,0,0.066,0.061,0.065,0.062c-0.499-0.311-0.998-0.622-1.496-0.932
		c0,0-0.208-0.151-0.208-0.151c-0.223-0.211-0.447-0.424-0.671-0.637c0,0-0.126-0.127-0.125-0.127
		c-0.125-1.152-0.636-2.006-1.809-2.352l0.119,0.009c-0.277-0.292-0.554-0.585-0.83-0.878c0,0-0.026-0.038-0.026-0.038
		c-0.295-0.555-0.59-1.109-0.885-1.664l0.018,0.064c0.06-1.678-0.176-3.24-1.686-4.304c0,0,0.011-0.312,0.011-0.312
		C66.823,310.695,66.824,307.309,66.825,303.922z"/>
	<path fill-rule="evenodd" clip-rule="evenodd" fill="#EEF3F4" d="M195.067,240.71c-1.576-0.03-2.979-0.62-4.375-1.287
		c-15.735-7.528-30.122-3.703-43.58,5.628c-7.287,5.053-12.726,11.909-16.771,19.866c-1.541,3.031-1.083,4.291,2.48,4.354
		c3.359,0.059,6.708,0.549,9.356,2.954c0.461,0.418,0.922,1.181,0.874,1.74c-0.081,0.938-1.012,0.751-1.677,0.653
		c-9.24-1.359-16.955,1.902-23.824,7.794c-0.271,0.232-0.751,0.219-1.438,0.401c0.049-3.576,1.467-6.249,3.867-8.532
		c0.674-0.642,1.736-1.34,1.262-2.415c-0.6-1.359-1.917-0.806-2.957-0.6c-12.827,2.547-22.381,9-26.263,22.154
		c-0.555,1.883-1.148,3.69-3.682,2.34c-7.046-3.754-13.334-3.029-18.786,3.042c-0.254,0.283-0.747,0.351-1.128,0.519
		c3.046-7.164,8.964-10.459,16.238-11.363c2.698-0.335,3.707-1.445,4.681-3.697c5.757-13.309,15.98-20.396,30.47-20.849
		c3.015-0.095,4.298-1.125,5.566-3.656c12.642-25.241,43.533-34.569,67.724-20.551C193.814,239.616,194.417,240.205,195.067,240.71z
		"/>
	<path fill-rule="evenodd" clip-rule="evenodd" fill="#EEF3F4" d="M259.648,291.77c-6.943-3.641-14.05-6.618-22.171-5.909
		c-1.619,0.142-2.896-0.875-3.951-2.048c-9.851-10.955-21.723-13.594-35.457-8.663c-0.358,0.128-0.788,0.057-1.218,0.081
		c0.955-2.779,5.386-6.231,11.101-8.159c3.212-1.083,5.052-2.76,4.708-6.294c1.199,2.949,3.261,4.047,6.555,4.508
		c9.876,1.383,17.52,6.612,22.725,15.163c1.172,1.925,2.5,2.842,4.788,3.323C251.903,284.859,256.862,286.66,259.648,291.77z"/>
	<path fill-rule="evenodd" clip-rule="evenodd" fill="#EEF3F4" d="M233.491,327.897c1.785,0.088,3.623-0.066,5.345,0.31
		c4.976,1.085,9.564,0.198,13.959-2.197c1.329-0.724,2.665-1.468,4.251-1.467C250.6,330.382,240.989,331.75,233.491,327.897z"/>
	<path fill-rule="evenodd" clip-rule="evenodd" fill="#EEF3F4" d="M262.934,317.286c-0.347-4.034,2.128-7.603,1.708-11.757
		c-0.306-3.02-2.408-5.669-1.592-8.837C266.9,303.578,266.555,310.441,262.934,317.286z"/>
	<path fill-rule="evenodd" clip-rule="evenodd" fill="#EEF3F4" d="M257.889,323.738c0.097-2.315,1.054-3.874,3.571-4.062
		C260.797,321.492,259.608,322.848,257.889,323.738z"/>
	<path fill-rule="evenodd" clip-rule="evenodd" fill="#EEF3F4" d="M66.825,303.922c-0.001,3.387-0.002,6.773-0.002,10.161
		C65.482,310.696,65.426,307.309,66.825,303.922z"/>
	<path fill-rule="evenodd" clip-rule="evenodd" fill="#EEF3F4" d="M68.48,299.301c0.088,1.719-0.193,3.291-1.735,4.363
		C66.891,302.039,67.135,300.452,68.48,299.301z"/>
	<path fill-rule="evenodd" clip-rule="evenodd" fill="#EEF3F4" d="M201.698,245.759c-1.735-0.073-2.957-0.783-3.26-2.631
		C199.824,243.634,200.889,244.539,201.698,245.759z"/>
	<path fill-rule="evenodd" clip-rule="evenodd" fill="#EEF3F4" d="M230.049,326.23c1.435-0.005,2.818,0.097,3.471,1.694
		C232.127,327.844,231.014,327.189,230.049,326.23z"/>
	<path fill-rule="evenodd" clip-rule="evenodd" fill="#EEF3F4" d="M66.812,314.396c1.509,1.063,1.745,2.626,1.686,4.304
		C67.342,317.497,66.877,316.024,66.812,314.396z"/>
	<path fill-rule="evenodd" clip-rule="evenodd" fill="#EEF3F4" d="M263.142,296.784c-1.446-0.677-1.905-1.896-1.864-3.391
		C262.463,294.214,262.982,295.4,263.142,296.784z"/>
	<path fill-rule="evenodd" clip-rule="evenodd" fill="#EEF3F4" d="M210.97,257.473c-1.192-0.455-1.618-1.396-1.641-2.591
		C210.292,255.482,210.693,256.438,210.97,257.473z"/>
	<path fill-rule="evenodd" clip-rule="evenodd" fill="#EEF3F4" d="M70.102,321.206c1.173,0.346,1.685,1.2,1.809,2.352
		C70.954,323.045,70.409,322.217,70.102,321.206z"/>
	<path fill-rule="evenodd" clip-rule="evenodd" fill="#EEF3F4" d="M207.684,252.438c-1.153-0.349-1.661-1.2-1.813-2.328
		C206.76,250.664,207.34,251.458,207.684,252.438z"/>
	<path fill-rule="evenodd" clip-rule="evenodd" fill="#EEF3F4" d="M76.607,327.08c0.65,0.32,1.3,0.64,1.949,0.959
		C77.907,327.72,77.257,327.4,76.607,327.08z"/>
	<path fill-rule="evenodd" clip-rule="evenodd" fill="#EEF3F4" d="M72.915,324.472c0.499,0.311,0.997,0.622,1.496,0.932
		C73.723,325.398,73.237,325.067,72.915,324.472z"/>
	<path fill-rule="evenodd" clip-rule="evenodd" fill="#EEF3F4" d="M68.48,318.635c0.295,0.554,0.59,1.109,0.885,1.664
		C69.069,319.744,68.774,319.189,68.48,318.635z"/>
	<path fill-rule="evenodd" clip-rule="evenodd" fill="#EEF3F4" d="M212.677,260.864c-0.292-0.583-0.585-1.165-0.878-1.747
		C212.462,259.512,212.669,260.138,212.677,260.864z"/>
	<path fill-rule="evenodd" clip-rule="evenodd" fill="#EEF3F4" d="M211.828,259.179c-0.291-0.572-0.582-1.144-0.873-1.716
		C211.557,257.877,211.833,258.457,211.828,259.179z"/>
	<path fill-rule="evenodd" clip-rule="evenodd" fill="#EEF3F4" d="M209.322,254.997c-0.305-0.525-0.611-1.05-0.917-1.575
		C208.711,253.947,209.017,254.472,209.322,254.997z"/>
	<path fill-rule="evenodd" clip-rule="evenodd" fill="#EEF3F4" d="M196.509,241.621c-0.499-0.31-0.997-0.62-1.495-0.929
		C195.512,241.001,196.011,241.311,196.509,241.621z"/>
	<path fill-rule="evenodd" clip-rule="evenodd" fill="#EEF3F4" d="M204.206,248.261c-0.265-0.27-0.53-0.541-0.794-0.81
		C203.676,247.721,203.941,247.991,204.206,248.261z"/>
	<path fill-rule="evenodd" clip-rule="evenodd" fill="#EEF3F4" d="M203.389,247.428c-0.272-0.272-0.544-0.543-0.816-0.815
		C202.845,246.885,203.117,247.157,203.389,247.428z"/>
	<path fill-rule="evenodd" clip-rule="evenodd" fill="#EEF3F4" d="M197.556,242.412c-0.282-0.226-0.563-0.451-0.845-0.676
		C196.993,241.961,197.275,242.187,197.556,242.412z"/>
	<path fill-rule="evenodd" clip-rule="evenodd" fill="#EEF3F4" d="M198.433,243.262c-0.297-0.289-0.595-0.577-0.893-0.866
		C197.837,242.685,198.135,242.974,198.433,243.262z"/>
	<path fill-rule="evenodd" clip-rule="evenodd" fill="#EEF3F4" d="M202.551,246.591c-0.271-0.266-0.542-0.533-0.812-0.799
		C202.01,246.059,202.281,246.325,202.551,246.591z"/>
	<path fill-rule="evenodd" clip-rule="evenodd" fill="#EEF3F4" d="M262.032,318.7c0.212-0.278,0.423-0.557,0.635-0.835
		C262.456,318.143,262.244,318.421,262.032,318.7z"/>
	<path fill-rule="evenodd" clip-rule="evenodd" fill="#EEF3F4" d="M261.194,319.545c0.297-0.3,0.594-0.6,0.891-0.899
		C262.014,319.169,261.812,319.563,261.194,319.545z"/>
	<path fill-rule="evenodd" clip-rule="evenodd" fill="#EEF3F4" d="M69.391,320.337c0.276,0.293,0.553,0.586,0.83,0.878
		C69.944,320.922,69.667,320.63,69.391,320.337z"/>
	<path fill-rule="evenodd" clip-rule="evenodd" fill="#EEF3F4" d="M72.036,323.685c0.224,0.213,0.448,0.425,0.671,0.637
		C72.483,324.109,72.26,323.897,72.036,323.685z"/>
	<path fill-rule="evenodd" clip-rule="evenodd" fill="#EEF3F4" d="M257.003,324.556c0.298-0.297,0.595-0.594,0.893-0.892
		C257.598,323.961,257.3,324.258,257.003,324.556z"/>
	<path fill-rule="evenodd" clip-rule="evenodd" fill="#EEF3F4" d="M74.345,325.343c0.288,0.291,0.576,0.583,0.863,0.874
		C74.92,325.925,74.633,325.634,74.345,325.343z"/>
	<path fill-rule="evenodd" clip-rule="evenodd" fill="#EEF3F4" d="M205.002,249.095c-0.25-0.262-0.499-0.524-0.749-0.786
		C204.503,248.571,204.752,248.833,205.002,249.095z"/>
	<path fill-rule="evenodd" clip-rule="evenodd" fill="#EEF3F4" d="M205.741,249.94c-0.214-0.243-0.429-0.486-0.642-0.728
		C205.313,249.455,205.527,249.698,205.741,249.94z"/>
	<path fill-rule="evenodd" clip-rule="evenodd" fill="#EEF3F4" d="M260.422,292.685c-0.306-0.306-0.612-0.611-0.919-0.916
		C259.809,292.074,260.116,292.379,260.422,292.685z"/>
	<path fill-rule="evenodd" clip-rule="evenodd" fill="#EEF3F4" d="M261.252,293.517c-0.304-0.304-0.608-0.607-0.913-0.911
		C260.643,292.91,260.947,293.213,261.252,293.517z"/>
</g>
<g>
	<path fill-rule="evenodd" clip-rule="evenodd" fill="#EAEBEB" d="M386.395,169.226c0,0-0.08-0.257-0.08-0.258
		c1.542-1.072,1.823-2.644,1.735-4.363c0,0-0.053,0.022-0.053,0.021c0.381-0.168,0.874-0.235,1.128-0.518
		c5.452-6.072,11.74-6.797,18.786-3.043c2.533,1.35,3.126-0.457,3.682-2.34c3.882-13.154,13.436-19.607,26.263-22.154
		c1.04-0.207,2.357-0.76,2.957,0.6c0.474,1.075-0.588,1.773-1.262,2.415c-2.4,2.283-3.817,4.956-3.867,8.532
		c0.686-0.182,1.167-0.169,1.438-0.4c6.869-5.893,14.584-9.154,23.824-7.795c0.665,0.098,1.596,0.284,1.677-0.653
		c0.048-0.56-0.413-1.322-0.874-1.74c-2.648-2.405-5.997-2.895-9.356-2.954c-3.563-0.063-4.021-1.323-2.48-4.354
		c4.045-7.957,9.484-14.813,16.771-19.866c13.458-9.331,27.845-13.157,43.581-5.628c1.396,0.667,2.799,1.257,4.374,1.287
		c0,0-0.054-0.019-0.053-0.019c0.498,0.31,0.996,0.619,1.495,0.929c0,0,0.203,0.115,0.201,0.115c0.282,0.225,0.563,0.45,0.846,0.676
		l-0.018-0.015c0.299,0.289,0.596,0.577,0.894,0.866c0,0,0.005-0.134,0.006-0.134c0.303,1.848,1.524,2.558,3.26,2.631
		c0,0,0.041,0.033,0.04,0.033c0.271,0.266,0.543,0.533,0.812,0.799l0.022,0.021c0.272,0.272,0.544,0.543,0.815,0.815l0.023,0.023
		c0.264,0.27,0.529,0.54,0.794,0.81l0.048,0.048c0.249,0.262,0.498,0.524,0.748,0.786c0,0,0.098,0.117,0.098,0.117
		c0.213,0.242,0.428,0.485,0.642,0.728c0,0,0.13,0.17,0.129,0.17c0.153,1.127,0.661,1.979,1.813,2.328
		c0.24,0.328,0.481,0.657,0.722,0.984c0.306,0.525,0.611,1.05,0.917,1.575c0,0,0.006-0.115,0.007-0.115
		c0.022,1.196,0.448,2.136,1.641,2.591l-0.015-0.01c0.291,0.572,0.582,1.144,0.873,1.716l-0.029-0.062
		c0.293,0.583,0.586,1.165,0.878,1.747l-0.016-0.086c0.344,3.534-1.495,5.211-4.708,6.294c-5.715,1.928-10.146,5.38-11.102,8.159
		c0.432-0.024,0.861,0.047,1.219-0.081c13.733-4.932,25.605-2.292,35.457,8.663c1.054,1.172,2.332,2.189,3.95,2.048
		c8.121-0.709,15.228,2.269,22.171,5.909c0,0-0.146-0.001-0.146-0.001c0.307,0.305,0.612,0.61,0.919,0.916
		c0,0-0.084-0.078-0.083-0.079c0.305,0.305,0.608,0.607,0.913,0.911l0.025-0.124c-0.041,1.496,0.418,2.715,1.864,3.392l-0.092-0.093
		c-0.815,3.168,1.286,5.818,1.592,8.838c0.421,4.154-2.055,7.723-1.708,11.756c0.019,0.243-0.07,0.436-0.267,0.579
		c-0.212,0.278-0.423,0.558-0.635,0.835c0,0,0.052-0.055,0.053-0.054c-0.297,0.3-0.594,0.6-0.891,0.899l0.198-0.068l0.068,0.199
		c-2.518,0.188-3.475,1.747-3.572,4.062c0,0,0.007-0.075,0.007-0.074c-0.298,0.297-0.595,0.594-0.893,0.892l0.044-0.013
		c-1.586-0.001-2.922,0.743-4.251,1.467c-4.396,2.396-8.983,3.283-13.96,2.197c-1.722-0.377-3.56-0.223-5.345-0.311l0.028,0.028
		c-0.652-1.597-2.035-1.699-3.471-1.694c-11.883,5.379-23.47,5.426-34.597-2.004c-1.448-0.968-2.566-0.398-3.86,0.243
		c-15.77,7.821-31.431,7.558-46.864-0.894c-2.048-1.121-3.425-0.893-5.264,0.34c-11.467,7.69-23.412,8.203-35.572,1.797
		c-1.969-1.037-3.139-0.711-4.82,0.412c-6.448,4.305-13.284,5.498-20.515,1.914c-0.649-0.319-1.299-0.639-1.949-0.959
		c-0.467-0.288-0.933-0.576-1.399-0.863c-0.288-0.291-0.575-0.583-0.863-0.874c0,0,0.066,0.062,0.065,0.062
		c-0.499-0.311-0.998-0.621-1.496-0.932c0,0-0.208-0.151-0.208-0.151c-0.223-0.212-0.447-0.424-0.671-0.637
		c0,0-0.126-0.128-0.125-0.127c-0.125-1.151-0.636-2.006-1.809-2.352l0.119,0.009c-0.277-0.292-0.554-0.585-0.83-0.878
		c0,0-0.026-0.038-0.026-0.038c-0.295-0.555-0.59-1.109-0.885-1.664l0.018,0.064c0.06-1.678-0.176-3.24-1.686-4.304
		c0,0,0.011-0.312,0.011-0.312C386.393,175.999,386.394,172.612,386.395,169.226z"/>
	<path fill-rule="evenodd" clip-rule="evenodd" fill="#EEF3F4" d="M514.637,106.014c-1.575-0.03-2.979-0.62-4.374-1.287
		c-15.735-7.528-30.123-3.703-43.581,5.628c-7.287,5.053-12.726,11.909-16.771,19.866c-1.541,3.031-1.083,4.291,2.48,4.354
		c3.359,0.059,6.708,0.549,9.356,2.954c0.461,0.418,0.922,1.181,0.874,1.74c-0.081,0.938-1.012,0.751-1.677,0.653
		c-9.24-1.359-16.955,1.902-23.824,7.795c-0.271,0.231-0.751,0.219-1.438,0.4c0.049-3.576,1.467-6.249,3.867-8.532
		c0.674-0.642,1.736-1.34,1.262-2.415c-0.6-1.359-1.917-0.806-2.957-0.6c-12.827,2.547-22.381,9-26.263,22.154
		c-0.555,1.883-1.148,3.689-3.682,2.34c-7.046-3.754-13.334-3.029-18.786,3.043c-0.254,0.282-0.747,0.35-1.128,0.518
		c3.046-7.163,8.964-10.459,16.238-11.363c2.698-0.335,3.707-1.444,4.681-3.696c5.757-13.309,15.98-20.396,30.47-20.849
		c3.015-0.095,4.298-1.125,5.566-3.656c12.642-25.241,43.533-34.569,67.724-20.551C513.384,104.92,513.986,105.509,514.637,106.014z
		"/>
	<path fill-rule="evenodd" clip-rule="evenodd" fill="#EEF3F4" d="M579.218,157.073c-6.943-3.641-14.05-6.618-22.171-5.909
		c-1.618,0.142-2.896-0.876-3.95-2.048c-9.852-10.955-21.724-13.594-35.457-8.663c-0.357,0.128-0.787,0.057-1.219,0.081
		c0.955-2.779,5.387-6.231,11.102-8.159c3.213-1.083,5.052-2.76,4.708-6.294c1.198,2.949,3.261,4.047,6.555,4.508
		c9.876,1.383,17.52,6.612,22.725,15.164c1.173,1.925,2.5,2.842,4.788,3.322C571.472,150.163,576.432,151.964,579.218,157.073z"/>
	<path fill-rule="evenodd" clip-rule="evenodd" fill="#EEF3F4" d="M553.061,193.2c1.785,0.088,3.623-0.066,5.345,0.311
		c4.977,1.086,9.564,0.198,13.96-2.197c1.329-0.724,2.665-1.468,4.251-1.467C570.169,195.687,560.559,197.054,553.061,193.2z"/>
	<path fill-rule="evenodd" clip-rule="evenodd" fill="#EEF3F4" d="M582.503,182.589c-0.347-4.033,2.129-7.602,1.708-11.756
		c-0.306-3.02-2.407-5.67-1.592-8.838C586.47,168.882,586.125,175.745,582.503,182.589z"/>
	<path fill-rule="evenodd" clip-rule="evenodd" fill="#EEF3F4" d="M577.458,189.042c0.098-2.315,1.055-3.874,3.572-4.062
		C580.367,186.796,579.177,188.151,577.458,189.042z"/>
	<path fill-rule="evenodd" clip-rule="evenodd" fill="#EEF3F4" d="M386.395,169.226c-0.001,3.387-0.002,6.773-0.002,10.161
		C385.052,176,384.996,172.612,386.395,169.226z"/>
	<path fill-rule="evenodd" clip-rule="evenodd" fill="#EEF3F4" d="M388.05,164.604c0.088,1.72-0.193,3.291-1.735,4.363
		C386.461,167.343,386.705,165.755,388.05,164.604z"/>
	<path fill-rule="evenodd" clip-rule="evenodd" fill="#EEF3F4" d="M521.268,111.063c-1.735-0.073-2.957-0.783-3.26-2.631
		C519.394,108.938,520.458,109.842,521.268,111.063z"/>
	<path fill-rule="evenodd" clip-rule="evenodd" fill="#EEF3F4" d="M549.619,191.534c1.436-0.005,2.818,0.098,3.471,1.694
		C551.697,193.147,550.583,192.493,549.619,191.534z"/>
	<path fill-rule="evenodd" clip-rule="evenodd" fill="#EEF3F4" d="M386.382,179.699c1.509,1.063,1.745,2.626,1.686,4.304
		C386.912,182.801,386.447,181.328,386.382,179.699z"/>
	<path fill-rule="evenodd" clip-rule="evenodd" fill="#EEF3F4" d="M582.711,162.088c-1.446-0.677-1.905-1.896-1.864-3.392
		C582.033,159.518,582.552,160.704,582.711,162.088z"/>
	<path fill-rule="evenodd" clip-rule="evenodd" fill="#EEF3F4" d="M530.54,122.777c-1.192-0.455-1.618-1.396-1.641-2.591
		C529.863,120.786,530.263,121.742,530.54,122.777z"/>
	<path fill-rule="evenodd" clip-rule="evenodd" fill="#EEF3F4" d="M389.671,186.51c1.173,0.346,1.685,1.2,1.809,2.352
		C390.523,188.349,389.979,187.521,389.671,186.51z"/>
	<path fill-rule="evenodd" clip-rule="evenodd" fill="#EEF3F4" d="M527.253,117.741c-1.152-0.349-1.66-1.2-1.813-2.328
		C526.33,115.967,526.91,116.762,527.253,117.741z"/>
	<path fill-rule="evenodd" clip-rule="evenodd" fill="#EEF3F4" d="M396.177,192.384c0.65,0.32,1.3,0.64,1.949,0.959
		C397.477,193.023,396.827,192.704,396.177,192.384z"/>
	<path fill-rule="evenodd" clip-rule="evenodd" fill="#EEF3F4" d="M392.484,189.776c0.499,0.311,0.997,0.621,1.496,0.932
		C393.292,190.702,392.807,190.37,392.484,189.776z"/>
	<path fill-rule="evenodd" clip-rule="evenodd" fill="#EEF3F4" d="M388.05,183.938c0.295,0.555,0.59,1.109,0.885,1.664
		C388.639,185.048,388.344,184.493,388.05,183.938z"/>
	<path fill-rule="evenodd" clip-rule="evenodd" fill="#EEF3F4" d="M532.247,126.167c-0.292-0.583-0.585-1.165-0.878-1.747
		C532.033,124.816,532.24,125.441,532.247,126.167z"/>
	<path fill-rule="evenodd" clip-rule="evenodd" fill="#EEF3F4" d="M531.398,124.483c-0.291-0.572-0.582-1.144-0.873-1.716
		C531.126,123.181,531.403,123.76,531.398,124.483z"/>
	<path fill-rule="evenodd" clip-rule="evenodd" fill="#EEF3F4" d="M528.892,120.301c-0.306-0.525-0.611-1.05-0.917-1.575
		C528.281,119.251,528.586,119.776,528.892,120.301z"/>
	<path fill-rule="evenodd" clip-rule="evenodd" fill="#EEF3F4" d="M516.08,106.924c-0.499-0.31-0.997-0.62-1.495-0.929
		C515.082,106.305,515.581,106.614,516.08,106.924z"/>
	<path fill-rule="evenodd" clip-rule="evenodd" fill="#EEF3F4" d="M523.776,113.565c-0.265-0.27-0.53-0.541-0.794-0.81
		C523.246,113.024,523.511,113.295,523.776,113.565z"/>
	<path fill-rule="evenodd" clip-rule="evenodd" fill="#EEF3F4" d="M522.958,112.732c-0.271-0.272-0.543-0.543-0.815-0.815
		C522.416,112.188,522.687,112.46,522.958,112.732z"/>
	<path fill-rule="evenodd" clip-rule="evenodd" fill="#EEF3F4" d="M517.126,107.715c-0.282-0.226-0.563-0.451-0.846-0.676
		C516.563,107.265,516.845,107.49,517.126,107.715z"/>
	<path fill-rule="evenodd" clip-rule="evenodd" fill="#EEF3F4" d="M518.002,108.566c-0.298-0.289-0.595-0.577-0.894-0.866
		C517.408,107.989,517.705,108.277,518.002,108.566z"/>
	<path fill-rule="evenodd" clip-rule="evenodd" fill="#EEF3F4" d="M522.121,111.895c-0.27-0.266-0.541-0.533-0.812-0.799
		C521.58,111.362,521.851,111.629,522.121,111.895z"/>
	<path fill-rule="evenodd" clip-rule="evenodd" fill="#EEF3F4" d="M581.602,184.003c0.212-0.277,0.423-0.557,0.635-0.835
		C582.025,183.446,581.814,183.726,581.602,184.003z"/>
	<path fill-rule="evenodd" clip-rule="evenodd" fill="#EEF3F4" d="M580.764,184.849c0.297-0.3,0.594-0.6,0.891-0.899
		C581.583,184.473,581.382,184.866,580.764,184.849z"/>
	<path fill-rule="evenodd" clip-rule="evenodd" fill="#EEF3F4" d="M388.96,185.641c0.276,0.293,0.553,0.586,0.83,0.878
		C389.514,186.226,389.237,185.934,388.96,185.641z"/>
	<path fill-rule="evenodd" clip-rule="evenodd" fill="#EEF3F4" d="M391.606,188.988c0.224,0.213,0.448,0.425,0.671,0.637
		C392.053,189.413,391.83,189.2,391.606,188.988z"/>
	<path fill-rule="evenodd" clip-rule="evenodd" fill="#EEF3F4" d="M576.573,189.859c0.298-0.298,0.595-0.595,0.893-0.892
		C577.167,189.265,576.871,189.562,576.573,189.859z"/>
	<path fill-rule="evenodd" clip-rule="evenodd" fill="#EEF3F4" d="M393.915,190.646c0.288,0.291,0.576,0.583,0.863,0.874
		C394.49,191.229,394.203,190.938,393.915,190.646z"/>
	<path fill-rule="evenodd" clip-rule="evenodd" fill="#EEF3F4" d="M524.572,114.399c-0.25-0.262-0.499-0.524-0.748-0.786
		C524.073,113.875,524.322,114.137,524.572,114.399z"/>
	<path fill-rule="evenodd" clip-rule="evenodd" fill="#EEF3F4" d="M525.311,115.244c-0.214-0.243-0.429-0.486-0.642-0.728
		C524.882,114.759,525.097,115.001,525.311,115.244z"/>
	<path fill-rule="evenodd" clip-rule="evenodd" fill="#EEF3F4" d="M579.992,157.988c-0.307-0.306-0.612-0.611-0.919-0.916
		C579.378,157.378,579.685,157.683,579.992,157.988z"/>
	<path fill-rule="evenodd" clip-rule="evenodd" fill="#EEF3F4" d="M580.822,158.82c-0.305-0.304-0.608-0.606-0.913-0.911
		C580.212,158.214,580.517,158.517,580.822,158.82z"/>
</g>
<g>
	<path fill-rule="evenodd" clip-rule="evenodd" fill="#EAEBEB" d="M720.298,298.78c0,0-0.08-0.257-0.08-0.258
		c1.542-1.072,1.823-2.644,1.735-4.363c0,0-0.053,0.022-0.053,0.021c0.381-0.168,0.873-0.235,1.127-0.518
		c5.453-6.072,11.74-6.797,18.787-3.043c2.533,1.35,3.126-0.457,3.682-2.34c3.882-13.154,13.436-19.607,26.263-22.154
		c1.04-0.207,2.356-0.76,2.956,0.6c0.475,1.075-0.588,1.773-1.262,2.415c-2.4,2.283-3.817,4.956-3.867,8.532
		c0.687-0.182,1.167-0.169,1.438-0.4c6.869-5.893,14.584-9.154,23.824-7.795c0.665,0.098,1.596,0.284,1.678-0.653
		c0.048-0.56-0.413-1.322-0.875-1.74c-2.647-2.405-5.996-2.895-9.355-2.954c-3.563-0.063-4.021-1.323-2.48-4.354
		c4.045-7.957,9.484-14.813,16.771-19.866c13.457-9.331,27.845-13.157,43.58-5.628c1.396,0.667,2.799,1.257,4.374,1.287
		c0,0-0.054-0.019-0.053-0.019c0.498,0.31,0.996,0.619,1.495,0.929c0,0,0.203,0.115,0.201,0.115c0.282,0.225,0.563,0.45,0.846,0.676
		l-0.018-0.015c0.299,0.289,0.596,0.577,0.894,0.866c0,0,0.005-0.134,0.006-0.134c0.303,1.848,1.524,2.558,3.26,2.631
		c0,0,0.041,0.033,0.04,0.033c0.271,0.266,0.543,0.533,0.812,0.799l0.022,0.021c0.272,0.272,0.544,0.543,0.815,0.815l0.023,0.023
		c0.264,0.27,0.529,0.54,0.794,0.81l0.048,0.048c0.249,0.262,0.498,0.524,0.748,0.786c0,0,0.098,0.117,0.098,0.117
		c0.213,0.242,0.428,0.485,0.642,0.728c0,0,0.13,0.17,0.129,0.17c0.153,1.127,0.661,1.979,1.813,2.328
		c0.24,0.328,0.481,0.657,0.722,0.984c0.306,0.525,0.611,1.05,0.917,1.575c0,0,0.006-0.115,0.007-0.115
		c0.022,1.196,0.448,2.136,1.641,2.591l-0.015-0.01c0.291,0.572,0.582,1.144,0.873,1.716l-0.029-0.062
		c0.293,0.583,0.586,1.165,0.878,1.747l-0.016-0.086c0.344,3.534-1.495,5.211-4.708,6.294c-5.715,1.928-10.146,5.38-11.102,8.159
		c0.432-0.024,0.861,0.047,1.219-0.081c13.733-4.932,25.605-2.292,35.457,8.663c1.054,1.172,2.332,2.189,3.95,2.048
		c8.121-0.709,15.228,2.269,22.171,5.909c0,0-0.146-0.001-0.146-0.001c0.307,0.305,0.612,0.61,0.919,0.916
		c0,0-0.084-0.078-0.083-0.079c0.305,0.305,0.608,0.607,0.913,0.911l0.025-0.124c-0.041,1.496,0.418,2.715,1.864,3.392l-0.092-0.093
		c-0.815,3.168,1.286,5.818,1.592,8.838c0.421,4.154-2.055,7.723-1.708,11.756c0.019,0.243-0.07,0.436-0.267,0.579
		c-0.212,0.278-0.423,0.558-0.635,0.835c0,0,0.052-0.055,0.053-0.054c-0.297,0.3-0.594,0.6-0.891,0.899l0.198-0.068l0.068,0.199
		c-2.518,0.188-3.475,1.747-3.572,4.062c0,0,0.007-0.075,0.007-0.074c-0.298,0.297-0.595,0.594-0.893,0.892l0.044-0.013
		c-1.586-0.001-2.922,0.743-4.251,1.467c-4.396,2.396-8.983,3.283-13.96,2.197c-1.722-0.377-3.56-0.223-5.345-0.311l0.028,0.028
		c-0.652-1.597-2.035-1.699-3.471-1.694c-11.883,5.379-23.47,5.426-34.597-2.004c-1.448-0.968-2.566-0.398-3.86,0.243
		c-15.77,7.821-31.432,7.558-46.863-0.894c-2.049-1.121-3.426-0.893-5.264,0.34c-11.467,7.69-23.412,8.203-35.572,1.797
		c-1.969-1.037-3.14-0.711-4.82,0.412c-6.449,4.305-13.285,5.498-20.516,1.914c-0.649-0.319-1.299-0.639-1.949-0.959
		c-0.467-0.288-0.934-0.576-1.398-0.863c-0.288-0.291-0.576-0.583-0.863-0.874c0,0,0.065,0.062,0.064,0.062
		c-0.498-0.311-0.997-0.621-1.496-0.932l-0.207-0.151c-0.223-0.212-0.447-0.424-0.671-0.637c0,0-0.126-0.128-0.126-0.127
		c-0.124-1.151-0.635-2.006-1.809-2.352l0.119,0.009c-0.277-0.292-0.554-0.585-0.83-0.878c0,0-0.026-0.038-0.025-0.038
		c-0.295-0.555-0.59-1.109-0.885-1.664l0.018,0.064c0.059-1.678-0.177-3.24-1.686-4.304c0,0,0.011-0.312,0.011-0.312
		C720.296,305.554,720.297,302.167,720.298,298.78z"/>
	<path fill-rule="evenodd" clip-rule="evenodd" fill="#EEF3F4" d="M848.54,235.569c-1.575-0.03-2.979-0.62-4.374-1.287
		c-15.735-7.528-30.123-3.703-43.58,5.628c-7.287,5.053-12.727,11.909-16.771,19.866c-1.541,3.031-1.083,4.291,2.48,4.354
		c3.359,0.059,6.708,0.549,9.355,2.954c0.462,0.418,0.923,1.181,0.875,1.74c-0.082,0.938-1.013,0.751-1.678,0.653
		c-9.24-1.359-16.955,1.902-23.824,7.795c-0.271,0.231-0.751,0.219-1.438,0.4c0.05-3.576,1.467-6.249,3.867-8.532
		c0.674-0.642,1.736-1.34,1.262-2.415c-0.6-1.359-1.916-0.806-2.956-0.6c-12.827,2.547-22.381,9-26.263,22.154
		c-0.556,1.883-1.148,3.689-3.682,2.34c-7.047-3.754-13.334-3.029-18.787,3.043c-0.254,0.282-0.746,0.35-1.127,0.518
		c3.046-7.163,8.964-10.459,16.238-11.363c2.697-0.335,3.707-1.444,4.681-3.696c5.757-13.309,15.98-20.396,30.47-20.849
		c3.016-0.095,4.299-1.125,5.566-3.656c12.643-25.241,43.533-34.569,67.725-20.551C847.287,234.475,847.889,235.063,848.54,235.569z
		"/>
	<path fill-rule="evenodd" clip-rule="evenodd" fill="#EEF3F4" d="M913.121,286.628c-6.943-3.641-14.05-6.618-22.171-5.909
		c-1.618,0.142-2.896-0.876-3.95-2.048c-9.852-10.955-21.724-13.594-35.457-8.663c-0.357,0.128-0.787,0.057-1.219,0.081
		c0.955-2.779,5.387-6.231,11.102-8.159c3.213-1.083,5.052-2.76,4.708-6.294c1.198,2.949,3.261,4.047,6.555,4.508
		c9.876,1.383,17.52,6.612,22.725,15.164c1.173,1.925,2.5,2.842,4.788,3.322C905.375,279.718,910.335,281.519,913.121,286.628z"/>
	<path fill-rule="evenodd" clip-rule="evenodd" fill="#EEF3F4" d="M886.964,322.755c1.785,0.088,3.623-0.066,5.345,0.311
		c4.977,1.086,9.564,0.198,13.96-2.197c1.329-0.724,2.665-1.468,4.251-1.467C904.072,325.241,894.462,326.608,886.964,322.755z"/>
	<path fill-rule="evenodd" clip-rule="evenodd" fill="#EEF3F4" d="M916.406,312.144c-0.347-4.033,2.129-7.602,1.708-11.756
		c-0.306-3.02-2.407-5.67-1.592-8.838C920.373,298.437,920.027,305.3,916.406,312.144z"/>
	<path fill-rule="evenodd" clip-rule="evenodd" fill="#EEF3F4" d="M911.361,318.597c0.098-2.315,1.055-3.874,3.572-4.062
		C914.27,316.351,913.08,317.706,911.361,318.597z"/>
	<path fill-rule="evenodd" clip-rule="evenodd" fill="#EEF3F4" d="M720.298,298.78c-0.001,3.387-0.002,6.773-0.002,10.161
		C718.955,305.555,718.898,302.167,720.298,298.78z"/>
	<path fill-rule="evenodd" clip-rule="evenodd" fill="#EEF3F4" d="M721.953,294.159c0.088,1.72-0.193,3.291-1.735,4.363
		C720.363,296.897,720.607,295.31,721.953,294.159z"/>
	<path fill-rule="evenodd" clip-rule="evenodd" fill="#EEF3F4" d="M855.171,240.618c-1.735-0.073-2.957-0.783-3.26-2.631
		C853.297,238.492,854.361,239.397,855.171,240.618z"/>
	<path fill-rule="evenodd" clip-rule="evenodd" fill="#EEF3F4" d="M883.521,321.089c1.436-0.005,2.818,0.098,3.471,1.694
		C885.6,322.702,884.486,322.048,883.521,321.089z"/>
	<path fill-rule="evenodd" clip-rule="evenodd" fill="#EEF3F4" d="M720.285,309.254c1.509,1.063,1.744,2.626,1.686,4.304
		C720.814,312.355,720.35,310.883,720.285,309.254z"/>
	<path fill-rule="evenodd" clip-rule="evenodd" fill="#EEF3F4" d="M916.614,291.643c-1.446-0.677-1.905-1.896-1.864-3.392
		C915.936,289.072,916.455,290.259,916.614,291.643z"/>
	<path fill-rule="evenodd" clip-rule="evenodd" fill="#EEF3F4" d="M864.442,252.332c-1.192-0.455-1.618-1.396-1.641-2.591
		C863.766,250.34,864.166,251.296,864.442,252.332z"/>
	<path fill-rule="evenodd" clip-rule="evenodd" fill="#EEF3F4" d="M723.574,316.064c1.174,0.346,1.685,1.2,1.809,2.352
		C724.426,317.903,723.882,317.075,723.574,316.064z"/>
	<path fill-rule="evenodd" clip-rule="evenodd" fill="#EEF3F4" d="M861.156,247.296c-1.152-0.349-1.66-1.2-1.813-2.328
		C860.232,245.522,860.812,246.316,861.156,247.296z"/>
	<path fill-rule="evenodd" clip-rule="evenodd" fill="#EEF3F4" d="M730.08,321.938c0.65,0.32,1.3,0.64,1.949,0.959
		C731.379,322.578,730.73,322.259,730.08,321.938z"/>
	<path fill-rule="evenodd" clip-rule="evenodd" fill="#EEF3F4" d="M726.387,319.331c0.499,0.311,0.998,0.621,1.496,0.932
		C727.195,320.257,726.709,319.925,726.387,319.331z"/>
	<path fill-rule="evenodd" clip-rule="evenodd" fill="#EEF3F4" d="M721.953,313.493c0.295,0.555,0.59,1.109,0.885,1.664
		C722.542,314.603,722.247,314.048,721.953,313.493z"/>
	<path fill-rule="evenodd" clip-rule="evenodd" fill="#EEF3F4" d="M866.149,255.722c-0.292-0.583-0.585-1.165-0.878-1.747
		C865.936,254.371,866.143,254.996,866.149,255.722z"/>
	<path fill-rule="evenodd" clip-rule="evenodd" fill="#EEF3F4" d="M865.301,254.038c-0.291-0.572-0.582-1.144-0.873-1.716
		C865.029,252.735,865.306,253.315,865.301,254.038z"/>
	<path fill-rule="evenodd" clip-rule="evenodd" fill="#EEF3F4" d="M862.795,249.855c-0.306-0.525-0.611-1.05-0.917-1.575
		C862.184,248.806,862.489,249.331,862.795,249.855z"/>
	<path fill-rule="evenodd" clip-rule="evenodd" fill="#EEF3F4" d="M849.982,236.479c-0.499-0.31-0.997-0.62-1.495-0.929
		C848.984,235.859,849.483,236.169,849.982,236.479z"/>
	<path fill-rule="evenodd" clip-rule="evenodd" fill="#EEF3F4" d="M857.679,243.12c-0.265-0.27-0.53-0.541-0.794-0.81
		C857.148,242.579,857.414,242.85,857.679,243.12z"/>
	<path fill-rule="evenodd" clip-rule="evenodd" fill="#EEF3F4" d="M856.861,242.287c-0.271-0.272-0.543-0.543-0.815-0.815
		C856.318,241.743,856.59,242.015,856.861,242.287z"/>
	<path fill-rule="evenodd" clip-rule="evenodd" fill="#EEF3F4" d="M851.029,237.27c-0.282-0.226-0.563-0.451-0.846-0.676
		C850.466,236.82,850.748,237.045,851.029,237.27z"/>
	<path fill-rule="evenodd" clip-rule="evenodd" fill="#EEF3F4" d="M851.905,238.121c-0.298-0.289-0.595-0.577-0.894-0.866
		C851.311,237.543,851.607,237.832,851.905,238.121z"/>
	<path fill-rule="evenodd" clip-rule="evenodd" fill="#EEF3F4" d="M856.023,241.45c-0.27-0.266-0.541-0.533-0.812-0.799
		C855.482,240.917,855.754,241.184,856.023,241.45z"/>
	<path fill-rule="evenodd" clip-rule="evenodd" fill="#EEF3F4" d="M915.505,313.558c0.212-0.277,0.423-0.557,0.635-0.835
		C915.928,313.001,915.717,313.28,915.505,313.558z"/>
	<path fill-rule="evenodd" clip-rule="evenodd" fill="#EEF3F4" d="M914.667,314.403c0.297-0.3,0.594-0.6,0.891-0.899
		C915.486,314.027,915.285,314.421,914.667,314.403z"/>
	<path fill-rule="evenodd" clip-rule="evenodd" fill="#EEF3F4" d="M722.863,315.195c0.276,0.293,0.553,0.586,0.83,0.878
		C723.417,315.78,723.141,315.488,722.863,315.195z"/>
	<path fill-rule="evenodd" clip-rule="evenodd" fill="#EEF3F4" d="M725.509,318.543c0.224,0.213,0.448,0.425,0.671,0.637
		C725.956,318.968,725.732,318.755,725.509,318.543z"/>
	<path fill-rule="evenodd" clip-rule="evenodd" fill="#EEF3F4" d="M910.476,319.414c0.298-0.298,0.595-0.595,0.893-0.892
		C911.07,318.819,910.773,319.116,910.476,319.414z"/>
	<path fill-rule="evenodd" clip-rule="evenodd" fill="#EEF3F4" d="M727.818,320.201c0.287,0.291,0.575,0.583,0.863,0.874
		C728.393,320.783,728.105,320.492,727.818,320.201z"/>
	<path fill-rule="evenodd" clip-rule="evenodd" fill="#EEF3F4" d="M858.475,243.954c-0.25-0.262-0.499-0.524-0.748-0.786
		C857.976,243.43,858.225,243.692,858.475,243.954z"/>
	<path fill-rule="evenodd" clip-rule="evenodd" fill="#EEF3F4" d="M859.214,244.798c-0.214-0.243-0.429-0.486-0.642-0.728
		C858.785,244.313,859,244.556,859.214,244.798z"/>
	<path fill-rule="evenodd" clip-rule="evenodd" fill="#EEF3F4" d="M913.895,287.543c-0.307-0.306-0.612-0.611-0.919-0.916
		C913.281,286.933,913.588,287.237,913.895,287.543z"/>
	<path fill-rule="evenodd" clip-rule="evenodd" fill="#EEF3F4" d="M914.725,288.375c-0.305-0.304-0.608-0.606-0.913-0.911
		C914.115,287.769,914.42,288.071,914.725,288.375z"/>
</g>
<g>
	<path fill-rule="evenodd" clip-rule="evenodd" fill="#EAEBEB" d="M1017.876,153.81c0,0-0.08-0.257-0.08-0.258
		c1.542-1.072,1.823-2.644,1.735-4.363c0,0-0.053,0.022-0.053,0.021c0.381-0.168,0.873-0.235,1.127-0.518
		c5.453-6.072,11.74-6.797,18.787-3.043c2.533,1.35,3.126-0.457,3.682-2.34c3.882-13.154,13.436-19.607,26.263-22.154
		c1.04-0.207,2.356-0.76,2.956,0.6c0.475,1.074-0.588,1.773-1.262,2.415c-2.4,2.283-3.817,4.956-3.867,8.532
		c0.687-0.182,1.167-0.169,1.438-0.4c6.869-5.893,14.584-9.154,23.824-7.795c0.665,0.098,1.596,0.284,1.678-0.653
		c0.048-0.56-0.413-1.321-0.875-1.74c-2.647-2.405-5.996-2.896-9.355-2.954c-3.563-0.062-4.021-1.323-2.48-4.354
		c4.045-7.957,9.484-14.813,16.771-19.866c13.457-9.331,27.845-13.157,43.58-5.628c1.396,0.667,2.799,1.257,4.374,1.287
		c0,0-0.054-0.019-0.053-0.019c0.498,0.31,0.996,0.619,1.495,0.929c0,0,0.203,0.115,0.201,0.115c0.282,0.225,0.563,0.45,0.846,0.676
		l-0.018-0.015c0.299,0.289,0.596,0.577,0.894,0.866c0,0,0.005-0.134,0.006-0.134c0.303,1.848,1.524,2.558,3.26,2.631
		c0,0,0.041,0.033,0.04,0.033c0.271,0.266,0.543,0.533,0.812,0.799l0.022,0.021c0.272,0.272,0.544,0.543,0.815,0.815l0.023,0.023
		c0.264,0.27,0.529,0.54,0.794,0.81l0.048,0.048c0.249,0.262,0.498,0.524,0.748,0.786c0,0,0.098,0.117,0.098,0.117
		c0.213,0.242,0.428,0.485,0.642,0.728c0,0,0.13,0.17,0.129,0.17c0.153,1.127,0.661,1.979,1.813,2.328
		c0.24,0.328,0.481,0.657,0.722,0.984c0.306,0.525,0.611,1.05,0.917,1.575c0,0,0.006-0.115,0.007-0.115
		c0.022,1.196,0.448,2.136,1.641,2.591l-0.015-0.01c0.291,0.572,0.582,1.144,0.873,1.716l-0.029-0.062
		c0.293,0.583,0.586,1.165,0.878,1.747l-0.016-0.086c0.344,3.534-1.495,5.211-4.708,6.294c-5.715,1.928-10.146,5.379-11.102,8.159
		c0.432-0.023,0.861,0.048,1.219-0.08c13.733-4.932,25.605-2.293,35.457,8.662c1.054,1.172,2.332,2.189,3.95,2.048
		c8.121-0.709,15.228,2.269,22.171,5.909c0,0-0.146-0.001-0.146-0.001c0.307,0.305,0.612,0.61,0.919,0.916
		c0,0-0.084-0.078-0.083-0.079c0.305,0.305,0.608,0.607,0.913,0.911l0.025-0.124c-0.041,1.496,0.418,2.715,1.864,3.392l-0.092-0.093
		c-0.815,3.168,1.286,5.818,1.592,8.838c0.421,4.154-2.055,7.723-1.708,11.756c0.019,0.243-0.07,0.436-0.267,0.579
		c-0.212,0.278-0.423,0.558-0.635,0.835c0,0,0.052-0.055,0.053-0.054c-0.297,0.3-0.594,0.6-0.891,0.899l0.198-0.068l0.068,0.199
		c-2.518,0.188-3.475,1.747-3.572,4.062c0,0,0.007-0.075,0.007-0.074c-0.298,0.297-0.595,0.594-0.893,0.892l0.044-0.013
		c-1.586-0.001-2.922,0.743-4.251,1.467c-4.396,2.396-8.983,3.283-13.96,2.197c-1.722-0.377-3.56-0.223-5.345-0.311l0.028,0.028
		c-0.652-1.597-2.035-1.699-3.471-1.694c-11.883,5.379-23.47,5.426-34.597-2.004c-1.448-0.968-2.566-0.398-3.86,0.243
		c-15.77,7.821-31.432,7.558-46.863-0.894c-2.049-1.121-3.426-0.893-5.264,0.34c-11.467,7.69-23.412,8.203-35.572,1.797
		c-1.969-1.037-3.14-0.711-4.82,0.412c-6.449,4.305-13.285,5.498-20.516,1.914c-0.649-0.319-1.299-0.639-1.949-0.959
		c-0.467-0.288-0.934-0.576-1.398-0.863c-0.288-0.291-0.576-0.583-0.863-0.874c0,0,0.065,0.062,0.064,0.062
		c-0.498-0.311-0.997-0.621-1.496-0.932l-0.207-0.151c-0.223-0.212-0.447-0.424-0.671-0.637c0,0-0.126-0.128-0.126-0.127
		c-0.124-1.151-0.635-2.006-1.809-2.352l0.119,0.009c-0.277-0.292-0.554-0.585-0.83-0.878c0,0-0.026-0.038-0.025-0.038
		c-0.295-0.555-0.59-1.109-0.885-1.664l0.018,0.064c0.059-1.678-0.177-3.24-1.686-4.304c0,0,0.011-0.312,0.011-0.312
		C1017.874,160.583,1017.875,157.197,1017.876,153.81z"/>
	<path fill-rule="evenodd" clip-rule="evenodd" fill="#EEF3F4" d="M1146.118,90.599c-1.575-0.03-2.979-0.62-4.374-1.287
		c-15.735-7.528-30.123-3.703-43.58,5.628c-7.287,5.053-12.727,11.909-16.771,19.866c-1.541,3.031-1.083,4.292,2.48,4.354
		c3.359,0.059,6.708,0.549,9.355,2.954c0.462,0.419,0.923,1.181,0.875,1.74c-0.082,0.938-1.013,0.751-1.678,0.653
		c-9.24-1.359-16.955,1.902-23.824,7.795c-0.271,0.231-0.751,0.219-1.438,0.4c0.05-3.576,1.467-6.249,3.867-8.532
		c0.674-0.642,1.736-1.341,1.262-2.415c-0.6-1.359-1.916-0.807-2.956-0.6c-12.827,2.547-22.381,9-26.263,22.154
		c-0.556,1.883-1.148,3.689-3.682,2.34c-7.047-3.754-13.334-3.029-18.787,3.043c-0.254,0.282-0.746,0.35-1.127,0.518
		c3.046-7.163,8.964-10.459,16.238-11.363c2.697-0.335,3.707-1.444,4.681-3.696c5.757-13.309,15.98-20.396,30.47-20.849
		c3.016-0.095,4.299-1.125,5.566-3.656c12.643-25.241,43.533-34.569,67.725-20.551C1144.865,89.504,1145.467,90.093,1146.118,90.599
		z"/>
	<path fill-rule="evenodd" clip-rule="evenodd" fill="#EEF3F4" d="M1210.699,141.658c-6.943-3.641-14.05-6.618-22.171-5.909
		c-1.618,0.142-2.896-0.876-3.95-2.048c-9.852-10.955-21.724-13.594-35.457-8.662c-0.357,0.128-0.787,0.057-1.219,0.08
		c0.955-2.779,5.387-6.231,11.102-8.159c3.213-1.083,5.052-2.76,4.708-6.294c1.198,2.949,3.261,4.047,6.555,4.508
		c9.876,1.383,17.52,6.613,22.725,15.164c1.173,1.925,2.5,2.842,4.788,3.322C1202.953,134.748,1207.913,136.548,1210.699,141.658z"
		/>
	<path fill-rule="evenodd" clip-rule="evenodd" fill="#EEF3F4" d="M1184.542,177.785c1.785,0.088,3.623-0.066,5.345,0.311
		c4.977,1.086,9.564,0.198,13.96-2.197c1.329-0.724,2.665-1.468,4.251-1.467C1201.65,180.271,1192.04,181.638,1184.542,177.785z"/>
	<path fill-rule="evenodd" clip-rule="evenodd" fill="#EEF3F4" d="M1213.984,167.173c-0.347-4.033,2.129-7.602,1.708-11.756
		c-0.306-3.02-2.407-5.67-1.592-8.838C1217.951,153.466,1217.605,160.33,1213.984,167.173z"/>
	<path fill-rule="evenodd" clip-rule="evenodd" fill="#EEF3F4" d="M1208.939,173.626c0.098-2.315,1.055-3.874,3.572-4.062
		C1211.848,171.38,1210.658,172.736,1208.939,173.626z"/>
	<path fill-rule="evenodd" clip-rule="evenodd" fill="#EEF3F4" d="M1017.876,153.81c-0.001,3.387-0.002,6.773-0.002,10.161
		C1016.533,160.584,1016.477,157.197,1017.876,153.81z"/>
	<path fill-rule="evenodd" clip-rule="evenodd" fill="#EEF3F4" d="M1019.531,149.189c0.088,1.72-0.193,3.291-1.735,4.363
		C1017.941,151.927,1018.186,150.339,1019.531,149.189z"/>
	<path fill-rule="evenodd" clip-rule="evenodd" fill="#EEF3F4" d="M1152.749,95.647c-1.735-0.073-2.957-0.783-3.26-2.631
		C1150.875,93.522,1151.939,94.427,1152.749,95.647z"/>
	<path fill-rule="evenodd" clip-rule="evenodd" fill="#EEF3F4" d="M1181.1,176.119c1.436-0.005,2.818,0.098,3.471,1.694
		C1183.178,177.732,1182.064,177.078,1181.1,176.119z"/>
	<path fill-rule="evenodd" clip-rule="evenodd" fill="#EEF3F4" d="M1017.863,164.284c1.509,1.063,1.744,2.626,1.686,4.304
		C1018.393,167.385,1017.928,165.913,1017.863,164.284z"/>
	<path fill-rule="evenodd" clip-rule="evenodd" fill="#EEF3F4" d="M1214.192,146.672c-1.446-0.677-1.905-1.896-1.864-3.392
		C1213.514,144.102,1214.033,145.289,1214.192,146.672z"/>
	<path fill-rule="evenodd" clip-rule="evenodd" fill="#EEF3F4" d="M1162.021,107.361c-1.192-0.455-1.618-1.396-1.641-2.591
		C1161.344,105.37,1161.744,106.326,1162.021,107.361z"/>
	<path fill-rule="evenodd" clip-rule="evenodd" fill="#EEF3F4" d="M1021.152,171.094c1.174,0.346,1.685,1.2,1.809,2.352
		C1022.004,172.933,1021.46,172.105,1021.152,171.094z"/>
	<path fill-rule="evenodd" clip-rule="evenodd" fill="#EEF3F4" d="M1158.734,102.326c-1.152-0.349-1.66-1.2-1.813-2.328
		C1157.811,100.552,1158.391,101.346,1158.734,102.326z"/>
	<path fill-rule="evenodd" clip-rule="evenodd" fill="#EEF3F4" d="M1027.658,176.968c0.65,0.32,1.3,0.64,1.949,0.959
		C1028.957,177.608,1028.309,177.289,1027.658,176.968z"/>
	<path fill-rule="evenodd" clip-rule="evenodd" fill="#EEF3F4" d="M1023.965,174.361c0.499,0.311,0.998,0.621,1.496,0.932
		C1024.773,175.287,1024.287,174.955,1023.965,174.361z"/>
	<path fill-rule="evenodd" clip-rule="evenodd" fill="#EEF3F4" d="M1019.531,168.523c0.295,0.555,0.59,1.109,0.885,1.664
		C1020.12,169.632,1019.825,169.078,1019.531,168.523z"/>
	<path fill-rule="evenodd" clip-rule="evenodd" fill="#EEF3F4" d="M1163.728,110.752c-0.292-0.583-0.585-1.165-0.878-1.747
		C1163.514,109.4,1163.721,110.026,1163.728,110.752z"/>
	<path fill-rule="evenodd" clip-rule="evenodd" fill="#EEF3F4" d="M1162.879,109.067c-0.291-0.572-0.582-1.144-0.873-1.716
		C1162.607,107.765,1162.884,108.345,1162.879,109.067z"/>
	<path fill-rule="evenodd" clip-rule="evenodd" fill="#EEF3F4" d="M1160.373,104.885c-0.306-0.525-0.611-1.05-0.917-1.575
		C1159.762,103.835,1160.067,104.36,1160.373,104.885z"/>
	<path fill-rule="evenodd" clip-rule="evenodd" fill="#EEF3F4" d="M1147.561,91.509c-0.499-0.31-0.997-0.62-1.495-0.929
		C1146.562,90.889,1147.062,91.199,1147.561,91.509z"/>
	<path fill-rule="evenodd" clip-rule="evenodd" fill="#EEF3F4" d="M1155.257,98.149c-0.265-0.27-0.53-0.541-0.794-0.81
		C1154.727,97.609,1154.992,97.879,1155.257,98.149z"/>
	<path fill-rule="evenodd" clip-rule="evenodd" fill="#EEF3F4" d="M1154.439,97.316c-0.271-0.272-0.543-0.543-0.815-0.815
		C1153.896,96.773,1154.168,97.045,1154.439,97.316z"/>
	<path fill-rule="evenodd" clip-rule="evenodd" fill="#EEF3F4" d="M1148.607,92.3c-0.282-0.226-0.563-0.451-0.846-0.676
		C1148.044,91.85,1148.326,92.075,1148.607,92.3z"/>
	<path fill-rule="evenodd" clip-rule="evenodd" fill="#EEF3F4" d="M1149.483,93.15c-0.298-0.289-0.595-0.577-0.894-0.866
		C1148.889,92.573,1149.186,92.862,1149.483,93.15z"/>
	<path fill-rule="evenodd" clip-rule="evenodd" fill="#EEF3F4" d="M1153.602,96.479c-0.27-0.266-0.541-0.533-0.812-0.799
		C1153.061,95.947,1153.332,96.213,1153.602,96.479z"/>
	<path fill-rule="evenodd" clip-rule="evenodd" fill="#EEF3F4" d="M1213.083,168.587c0.212-0.277,0.423-0.557,0.635-0.835
		C1213.506,168.031,1213.295,168.31,1213.083,168.587z"/>
	<path fill-rule="evenodd" clip-rule="evenodd" fill="#EEF3F4" d="M1212.245,169.433c0.297-0.3,0.594-0.6,0.891-0.899
		C1213.064,169.057,1212.863,169.451,1212.245,169.433z"/>
	<path fill-rule="evenodd" clip-rule="evenodd" fill="#EEF3F4" d="M1020.441,170.225c0.276,0.293,0.553,0.586,0.83,0.878
		C1020.995,170.81,1020.719,170.518,1020.441,170.225z"/>
	<path fill-rule="evenodd" clip-rule="evenodd" fill="#EEF3F4" d="M1023.087,173.573c0.224,0.213,0.448,0.425,0.671,0.637
		C1023.534,173.998,1023.311,173.785,1023.087,173.573z"/>
	<path fill-rule="evenodd" clip-rule="evenodd" fill="#EEF3F4" d="M1208.054,174.444c0.298-0.298,0.595-0.595,0.893-0.892
		C1208.648,173.849,1208.352,174.146,1208.054,174.444z"/>
	<path fill-rule="evenodd" clip-rule="evenodd" fill="#EEF3F4" d="M1025.396,175.231c0.287,0.291,0.575,0.583,0.863,0.874
		C1025.971,175.813,1025.684,175.522,1025.396,175.231z"/>
	<path fill-rule="evenodd" clip-rule="evenodd" fill="#EEF3F4" d="M1156.053,98.983c-0.25-0.262-0.499-0.524-0.748-0.786
		C1155.554,98.459,1155.803,98.722,1156.053,98.983z"/>
	<path fill-rule="evenodd" clip-rule="evenodd" fill="#EEF3F4" d="M1156.792,99.828c-0.214-0.243-0.429-0.486-0.642-0.728
		C1156.363,99.343,1156.578,99.586,1156.792,99.828z"/>
	<path fill-rule="evenodd" clip-rule="evenodd" fill="#EEF3F4" d="M1211.473,142.573c-0.307-0.306-0.612-0.611-0.919-0.916
		C1210.859,141.962,1211.166,142.267,1211.473,142.573z"/>
	<path fill-rule="evenodd" clip-rule="evenodd" fill="#EEF3F4" d="M1212.303,143.405c-0.305-0.304-0.608-0.606-0.913-0.911
		C1211.693,142.798,1211.998,143.101,1212.303,143.405z"/>
</g>
</svg>
